<?xml version="1.0" encoding="UTF-8"?>
<svg xmlns="http://www.w3.org/2000/svg" viewBox="0 0 792 546">
  <defs>
    <style>
      .m {
        fill: #231f20;
      }

      .m, .n, .o {
        stroke-width: 0px;
      }

      .n {
        fill: #6495ed;
      }

      .o {
        fill: #fff;
      }
    </style>
  </defs>
  <g id="a" data-name="Layer 1">
    <g>
      <path class="n" d="M38.29,24.15h0c-1,.72-1.91,1.55-2.72,2.48l-5.02,5.8c-1.15,1.33-2.07,2.85-2.71,4.48l-2.93,7.44-2.31,11.59-.23,10.21,2.38,12.31,3.34,14.98,6.01,32.2,2.34,22.72.23,7.97-.96,15.09-2.09,20.17-3.15,12.59-6.04,28.79c-.1.46-.17.92-.22,1.38l-.83,7.39c-.08.72-.11,1.45-.08,2.18l.13,3.33c.06,1.54.36,3.05.89,4.5l.35.96c.88,2.4,2.38,4.52,4.33,6.16h0c.68.57,1.41,1.08,2.18,1.51l6.37,3.61c.89.51,1.84.92,2.81,1.23l6.64,2.09c.81.26,1.64.44,2.49.55l7.31.96c.52.07,1.05.11,1.58.12l8.39.19,12.02,1.5,14.66,2.17h0s14.88,1.36,14.88,1.36h0s6.14-.68,6.14-.68h0s7.38-1.21,7.38-1.21l4.67-1.56,3.78-1.98h0s2.26-1.7,2.26-1.7l2.61-3.18,1.22-2.54h0s1.72-4.79,1.72-4.79c.16-.45.3-.91.41-1.38h0c.62-2.59.46-5.31-.47-7.8l-.58-1.55c-.45-1.21-1.08-2.35-1.86-3.38l-3.71-4.9c-.31-.41-.64-.79-.99-1.16l-4.79-5.01c-.18-.19-.36-.38-.52-.58l-7.43-8.75c-.18-.22-.36-.44-.53-.67l-5.12-6.88c-.64-.86-1.17-1.79-1.59-2.78l-3.13-7.41c-.34-.8-.6-1.64-.78-2.5l-2.78-13.48c-.06-.28-.11-.56-.15-.84l-2.58-18.43-1.8-9.8c-.13-.71-.2-1.43-.22-2.16l-.15-7.71c-.01-.61.02-1.21.09-1.81l1.41-12.03,1.67-14.32c.07-.64.18-1.27.33-1.9l1.3-5.65c.05-.21.11-.42.19-.62l2.12-5.29c.23-.58.6-1.11,1.06-1.53l1.31-1.19c1.4-1.27,3.47-1.44,5.06-.42h0c.61.39,1.11.94,1.44,1.58l3.79,7.29,6.04,12.8,5.06,11.54c.12.28.24.57.34.86l6.18,17.27,6.42,16.32c.1.25.2.49.32.74l5.77,12.42c.2.42.41.83.65,1.23l6.33,10.58,3.75,5.6,5.63,4.01,6.09,1.57,6.13-.27,5.13-1.11,4.14-2.36,3.36-4.21,2.36-4.85,3.25-8.3,4.94-19.7,6.55-27.42,3.02-10.45c.06-.2.13-.41.2-.6l3.44-9.06c.09-.24.2-.48.31-.72l2.71-5.43c.49-.98,1.19-1.85,2.04-2.55l2.1-1.71c1.43-1.16,3.23-1.78,5.07-1.74h.1c1.66.04,3.26.61,4.57,1.62h0c1.17.91,2.06,2.13,2.56,3.52l.67,1.86c.32.9.48,1.84.45,2.8l-.14,6.32-.26,11.38c0,.17-.01.34-.03.52l-1.62,18.09-2.52,12.2-2.06,9.76-.71,13.05-2.12,12.61-3.91,10.33-4,5.42-7.94,7.99-8.38,9.2-5.22,5.19-3.77,4-2.97,5.04-1.36,5.89.2,7.63c.01.5.06.99.15,1.48l.3,1.65c.31,1.75,1.09,3.37,2.26,4.71h0c.67.77,1.45,1.42,2.32,1.95l5.22,3.16c1.01.61,2.12,1.03,3.27,1.25l12.31,2.31c.52.1,1.06.15,1.59.17l15.71.36c.56.01,1.12-.02,1.67-.1l11.06-1.65,16.51-2.37c.47-.07.93-.15,1.39-.26l7.94-1.83c1.22-.28,2.41-.7,3.54-1.25l.99-.48c1.77-.86,3.37-2.02,4.74-3.44l1.07-1.12c.56-.58,1.07-1.2,1.54-1.85l1.21-1.68c.55-.77,1.04-1.59,1.46-2.44l1.09-2.23c.43-.89.78-1.81,1.05-2.76l.13-.45c.38-1.36.6-2.76.63-4.17l.02-.84c.03-1.24-.08-2.47-.33-3.69h0c-.44-2.16-1.3-4.22-2.53-6.05l-.82-1.22c-.36-.54-.76-1.05-1.18-1.54l-6.53-7.59-6.94-9.14-3.79-13.16-3.87-18.26-3.9-17.04-2.15-13.32-2.19-20.68-1.66-16.99-1.46-16.78-.24-16.34,2.05-9.35,3.7-9.92,3.2-6.05,5.71-5.82c.38-.38.74-.79,1.08-1.21l4.9-6.01c.31-.38.61-.78.89-1.19l2.03-2.97c.2-.29.39-.59.58-.9l.96-1.61c1.56-2.61,2.41-5.57,2.48-8.6h0c0-.32,0-.63,0-.95l-.07-2.35c-.1-3.1-1.02-6.13-2.66-8.76h0c-1.33-2.13-3.06-4-5.09-5.49l-.62-.45c-1.55-1.14-3.24-2.09-5.02-2.83l-2.11-.87c-2.72-1.12-5.62-1.73-8.56-1.8l-4.18-.1c-1.05-.02-2.1.02-3.14.14l-15.43,1.69-9.63,1.42-7.65,3.91-9,7.1c-.38.3-.72.64-1.02,1.01l-7.99,9.99c-.26.32-.48.66-.67,1.03l-5.84,11.23c-.19.36-.34.73-.45,1.12l-4.03,13.62-4.21,14.61-3.45,10.5c-.19.57-.45,1.11-.79,1.6l-2.37,3.45c-.47.68-1.07,1.27-1.76,1.72l-.53.34c-1.85,1.2-4.19,1.35-6.18.38h0c-1.08-.52-1.99-1.35-2.61-2.37l-2.68-4.37c-.2-.32-.37-.66-.5-1.01l-3.97-10.23c-.95-2.44-2.04-4.81-3.28-7.12h0c-1.5-2.79-2.79-5.69-3.86-8.68l-4.96-13.85c-.49-1.37-1.07-2.7-1.74-4l-.06-.12c-2.39-4.62-3.62-9.75-3.6-14.95h0c0-.77.1-1.54.28-2.28l1.03-4.29c.16-.65.49-1.25.96-1.72l2.22-2.25c.4-.41.7-.9.88-1.45l.64-1.96c.27-.82.24-1.7-.09-2.5h0c-.42-1.04-1.29-1.83-2.37-2.15l-2.85-.84c-.47-.14-.97-.18-1.46-.12l-6.9.81c-.29.03-.58.1-.85.21l-19.47,7.25-22.13,3.38-15.73.43c-.41.01-.82,0-1.23-.02l-13.25-.69-7.89-.26c-.61-.02-1.22,0-1.83.05l-1.35.11c-2.79.24-5.46,1.22-7.73,2.85Z"/>
      <path class="m" d="M231.36,279.93c-.08,0-.16,0-.23,0l-15.71-.36c-.56-.01-1.13-.07-1.67-.17l-12.31-2.31c-1.22-.23-2.38-.67-3.44-1.31l-5.22-3.16c-.91-.55-1.73-1.24-2.44-2.05-1.22-1.41-2.04-3.12-2.37-4.95l-.3-1.65c-.09-.51-.14-1.03-.16-1.55l-.2-7.7,1.43-6.1,3.04-5.13,3.77-4,5.24-5.2,8.36-9.19,7.96-8,3.92-5.31,3.89-10.26,2.1-12.52.7-13,4.59-22.03,1.61-18.03c.01-.16.02-.32.03-.48l.4-17.69c.02-.89-.12-1.78-.42-2.62l-.67-1.86c-.47-1.31-1.3-2.45-2.4-3.29-1.24-.95-2.71-1.48-4.27-1.51h-.1c-1.72-.05-3.41.54-4.75,1.62l-2.1,1.71c-.8.65-1.45,1.46-1.91,2.38l-2.71,5.43c-.11.22-.21.44-.29.67l-3.44,9.06c-.07.19-.13.37-.19.56l-3.02,10.45-6.54,27.4-4.94,19.7-3.27,8.36-2.43,4.98-3.51,4.34-4.28,2.41-5.13,1.11-6.29.28-6.33-1.66-5.75-4.14-3.75-5.6-6.35-10.6c-.25-.41-.47-.84-.68-1.28l-5.77-12.42c-.12-.25-.23-.51-.33-.76l-6.42-16.32-6.19-17.29c-.1-.28-.21-.56-.33-.83l-5.06-11.54-6.03-12.79-3.79-7.27c-.29-.57-.73-1.05-1.27-1.39-1.4-.9-3.23-.74-4.45.37l-1.31,1.19c-.41.37-.73.84-.94,1.35l-2.12,5.29c-.07.18-.13.36-.17.55l-1.3,5.65c-.14.61-.25,1.23-.32,1.84l-3.08,26.35c-.07.58-.1,1.17-.09,1.75l.15,7.71c.01.69.08,1.39.21,2.07l1.8,9.8,2.58,18.45c.04.27.08.54.14.81l2.78,13.48c.17.82.42,1.63.75,2.4l3.13,7.41c.4.95.92,1.85,1.53,2.68l5.12,6.88c.16.22.33.43.51.64l7.43,8.75c.16.19.33.38.5.56l4.79,5.01c.36.38.71.78,1.02,1.2l3.71,4.9c.81,1.07,1.46,2.25,1.93,3.51l.58,1.55c.97,2.6,1.14,5.4.49,8.09-.12.48-.26.96-.43,1.43l-1.72,4.79-1.31,2.69-2.7,3.26-2.26,1.7-3.85,2.02-4.75,1.59-7.45,1.23-6.22.69h-.05s-14.88-1.37-14.88-1.37l-14.68-2.17-12-1.5-8.34-.19c-.54-.01-1.09-.06-1.63-.13l-7.31-.96c-.87-.11-1.74-.31-2.57-.57l-6.64-2.09c-1.01-.32-1.99-.75-2.91-1.27l-6.37-3.61c-.8-.45-1.55-.98-2.26-1.56-2.02-1.69-3.57-3.9-4.48-6.37l-.35-.96c-.55-1.49-.86-3.06-.92-4.65l-.13-3.33c-.03-.75,0-1.51.08-2.25l.83-7.39c.05-.48.13-.96.23-1.43l6.04-28.79,3.15-12.61,2.08-20.1.95-15.07-.23-7.92-2.34-22.69-6-32.16-3.33-14.97-2.39-12.38.23-10.26,2.32-11.68,2.95-7.53c.67-1.69,1.61-3.25,2.8-4.63l5.02-5.8c.83-.96,1.77-1.82,2.8-2.56h0c2.35-1.68,5.11-2.69,7.98-2.94l1.35-.11c.63-.05,1.26-.07,1.89-.05l7.89.26,13.26.69c.4.02.8.03,1.19.01l15.73-.43,22.02-3.36,19.43-7.23c.31-.12.64-.19.97-.23l6.9-.81c.56-.07,1.12-.02,1.66.14l2.85.84c1.23.36,2.21,1.25,2.69,2.44.36.91.4,1.91.1,2.84l-.64,1.96c-.2.61-.54,1.18-1,1.64l-2.22,2.25c-.41.41-.69.93-.83,1.49l-1.03,4.29c-.17.71-.26,1.44-.26,2.17-.02,5.1,1.2,10.19,3.54,14.72l.06.12c.67,1.31,1.27,2.67,1.76,4.06l4.96,13.85c1.06,2.95,2.35,5.85,3.83,8.61,1.24,2.31,2.36,4.73,3.3,7.17l3.97,10.23c.12.32.28.64.46.93l2.68,4.37c.58.94,1.41,1.7,2.41,2.18,1.81.88,3.99.75,5.69-.35l.53-.34c.64-.42,1.19-.95,1.62-1.58l2.37-3.45c.31-.45.56-.95.73-1.47l3.45-10.5,4.21-14.59,4.03-13.62c.12-.42.29-.82.49-1.21l5.84-11.23c.2-.39.45-.76.72-1.11l7.99-9.99c.32-.4.69-.77,1.1-1.09l9-7.1,7.88-4.01,9.63-1.42,15.45-1.69c1.06-.12,2.14-.16,3.21-.14l4.18.1c3.01.07,5.95.69,8.74,1.84l2.11.87c1.82.75,3.54,1.72,5.13,2.88l.62.45c2.09,1.53,3.84,3.43,5.22,5.62,1.69,2.71,2.64,5.82,2.74,9.01l.07,2.35c.01.32.01.65,0,.97-.07,3.12-.95,6.18-2.55,8.85l-.96,1.61c-.19.31-.38.62-.59.93l-2.02,2.97c-.29.42-.59.83-.92,1.23l-4.9,6.01c-.35.43-.72.84-1.11,1.24l-5.65,5.76-3.17,5.99-3.67,9.86-2.02,9.22.24,16.29,1.46,16.74,1.66,16.98,2.19,20.67,2.14,13.3,3.9,17.01,3.88,18.27,3.75,13.03,6.88,9.07,6.51,7.57c.43.5.84,1.04,1.21,1.59l.82,1.22c1.28,1.89,2.16,3.99,2.61,6.23.25,1.25.36,2.52.34,3.79l-.02.84c-.03,1.45-.25,2.9-.65,4.3l-.13.45c-.27.97-.64,1.93-1.08,2.84l-1.09,2.23c-.43.88-.93,1.73-1.5,2.52l-1.21,1.68c-.48.67-1.02,1.31-1.59,1.9l-1.07,1.11c-1.41,1.46-3.05,2.66-4.88,3.54l-.99.48c-1.16.56-2.39,1-3.65,1.29l-7.94,1.83c-.47.11-.95.2-1.43.27l-16.51,2.37-11.05,1.65c-.5.08-1.02.11-1.52.11ZM188.31,254.8l.2,7.57c.01.47.06.94.14,1.4l.3,1.65c.3,1.66,1.04,3.2,2.14,4.47.64.73,1.38,1.35,2.2,1.85l5.22,3.16c.96.58,2,.98,3.11,1.19l12.31,2.31c.49.09,1,.15,1.51.16l15.71.36c.53.01,1.06-.02,1.59-.1l11.05-1.65,16.52-2.37c.45-.06.9-.15,1.35-.25l7.94-1.83c1.19-.27,2.34-.68,3.44-1.21l.99-.48c1.72-.84,3.27-1.96,4.6-3.34l1.07-1.11c.54-.56,1.04-1.16,1.49-1.79l1.21-1.68c.53-.74,1.01-1.54,1.41-2.37l1.09-2.23c.42-.86.76-1.76,1.02-2.67l.13-.45c.37-1.32.58-2.68.61-4.05l.02-.84c.03-1.2-.08-2.4-.32-3.57-.43-2.11-1.25-4.08-2.46-5.87l-.82-1.22c-.35-.52-.73-1.02-1.14-1.5l-6.53-7.6-7.04-9.33-3.79-13.16-3.88-18.3-3.9-17.03-2.15-13.36-2.19-20.7-1.66-16.99-1.46-16.79-.24-16.44,2.06-9.4,3.72-9.99,3.31-6.23,5.71-5.81c.37-.37.72-.77,1.05-1.17l4.9-6.01c.3-.37.59-.76.86-1.16l2.03-2.97c.2-.29.38-.58.56-.87l.96-1.61c1.51-2.53,2.34-5.42,2.41-8.36,0-.31,0-.61,0-.92l-.07-2.35c-.09-3.01-.99-5.95-2.59-8.51-1.31-2.09-2.98-3.89-4.96-5.35l-.62-.45c-1.52-1.12-3.17-2.05-4.92-2.77l-2.11-.87c-2.67-1.1-5.5-1.7-8.38-1.76l-4.18-.1c-1.03-.02-2.06.02-3.07.13l-15.43,1.69-9.53,1.4-7.57,3.87-8.92,7.04c-.35.27-.66.58-.94.93l-7.99,9.99c-.23.29-.44.61-.62.95l-5.84,11.23c-.17.33-.31.68-.42,1.03l-4.03,13.62-4.21,14.61-3.45,10.51c-.2.61-.49,1.19-.85,1.72l-2.37,3.45c-.51.74-1.15,1.36-1.9,1.85l-.53.34c-1.98,1.29-4.54,1.45-6.67.41-1.17-.57-2.14-1.45-2.82-2.56l-2.68-4.37c-.21-.35-.4-.72-.54-1.1l-3.97-10.23c-.93-2.41-2.03-4.78-3.25-7.06-1.51-2.8-2.82-5.75-3.89-8.75l-4.96-13.85c-.48-1.34-1.06-2.67-1.71-3.94l-.06-.12c-2.41-4.67-3.68-9.92-3.65-15.18,0-.81.1-1.62.29-2.4l1.03-4.29c.18-.74.55-1.42,1.09-1.96l2.22-2.25c.35-.35.61-.78.76-1.25l.64-1.96c.23-.71.2-1.47-.07-2.16-.36-.91-1.11-1.58-2.05-1.86l-2.85-.84c-.41-.12-.83-.16-1.26-.11l-6.9.81c-.25.03-.5.09-.74.18l-19.57,7.28-22.13,3.38-15.79.43c-.43.01-.85,0-1.27-.02l-13.25-.69-7.88-.26c-.58-.02-1.18,0-1.77.05l-1.35.11c-2.7.23-5.29,1.18-7.49,2.76h0c-.97.69-1.85,1.5-2.63,2.4l-5.02,5.8c-1.12,1.29-2,2.75-2.63,4.34l-2.93,7.44-2.28,11.5-.22,10.07,2.37,12.26,3.33,14.97,6.01,32.22,2.35,22.76.23,8.01-.96,15.14-2.09,20.19-3.16,12.66-6.04,28.77c-.09.44-.16.88-.21,1.33l-.83,7.39c-.08.7-.1,1.4-.08,2.1l.13,3.33c.06,1.49.35,2.95.86,4.34l.35.96c.85,2.31,2.3,4.37,4.18,5.95.65.55,1.36,1.04,2.11,1.46l6.37,3.61c.86.49,1.77.89,2.72,1.18l6.64,2.09c.78.25,1.59.43,2.4.53l7.31.96c.5.07,1.02.11,1.52.12l8.39.19,12.07,1.5,14.67,2.17,14.8,1.35,6.09-.67,7.35-1.21,4.6-1.54,3.71-1.95,2.14-1.62,2.54-3.09,1.2-2.48,1.7-4.74c.16-.43.29-.88.4-1.32.6-2.5.45-5.1-.46-7.51l-.58-1.55c-.44-1.17-1.04-2.26-1.79-3.26l-3.71-4.9c-.3-.39-.62-.76-.95-1.12l-4.79-5.01c-.19-.2-.37-.4-.54-.6l-7.43-8.75c-.19-.23-.37-.46-.55-.69l-5.12-6.88c-.66-.89-1.22-1.86-1.65-2.89l-3.13-7.41c-.35-.83-.62-1.7-.8-2.59l-2.78-13.48c-.06-.29-.11-.58-.15-.88l-2.58-18.43-1.8-9.78c-.14-.74-.21-1.49-.23-2.24l-.15-7.71c-.01-.63.02-1.26.09-1.88l3.08-26.35c.08-.65.19-1.31.34-1.95l1.3-5.65c.05-.24.13-.47.22-.69l2.12-5.29c.26-.65.67-1.24,1.19-1.71l1.31-1.19c1.56-1.42,3.89-1.62,5.67-.47.68.44,1.24,1.05,1.62,1.77l3.79,7.29,6.05,12.82,5.06,11.55c.13.29.25.59.35.89l6.18,17.27,6.41,16.3c.09.24.2.48.3.71l5.77,12.42c.19.4.4.8.63,1.18l6.33,10.58,3.69,5.5,5.48,3.9,5.93,1.53,6.06-.27,4.97-1.08,3.99-2.27,3.27-4.09,2.33-4.8,3.24-8.26,4.92-19.64,6.54-27.42,3.02-10.47c.06-.22.13-.43.21-.64l3.44-9.06c.1-.26.21-.51.33-.76l2.71-5.43c.53-1.06,1.26-1.97,2.18-2.71l2.1-1.71c1.52-1.24,3.44-1.9,5.4-1.85h.1c1.78.04,3.46.64,4.86,1.72,1.25.97,2.19,2.26,2.73,3.75l.67,1.86c.34.96.51,1.96.48,2.98l-.4,17.69c0,.18-.01.37-.03.55l-1.62,18.09-4.59,22.01-.69,12.98-2.13,12.67-4,10.54-4,5.42-7.99,8.04-8.36,9.19-5.24,5.21-3.72,3.95-2.91,4.92-1.33,5.75Z"/>
      <path class="n" d="M231.36,279.93c-.08,0-.16,0-.23,0l-15.71-.36c-.56-.01-1.13-.07-1.67-.17l-12.31-2.31c-1.22-.23-2.38-.67-3.44-1.31l-5.22-3.16c-.91-.55-1.73-1.24-2.44-2.05-1.22-1.41-2.04-3.12-2.37-4.95l-.3-1.65c-.09-.51-.14-1.03-.16-1.55l-.2-7.7,1.43-6.1,3.04-5.13,3.77-4,5.24-5.2,8.36-9.19,7.96-8,3.92-5.31,3.89-10.26,2.1-12.52.7-13,4.59-22.03,1.61-18.03c.01-.16.02-.32.03-.48l.4-17.69c.02-.89-.12-1.78-.42-2.62l-.67-1.86c-.47-1.31-1.3-2.45-2.4-3.29-1.24-.95-2.71-1.48-4.27-1.51h-.1c-1.72-.05-3.41.54-4.75,1.62l-2.1,1.71c-.8.65-1.45,1.46-1.91,2.38l-2.71,5.43c-.11.22-.21.44-.29.67l-3.44,9.06c-.07.19-.13.37-.19.56l-3.02,10.45-6.54,27.4-4.94,19.7-3.27,8.36-2.43,4.98-3.51,4.34-4.28,2.41-5.13,1.11-6.29.28-6.33-1.66-5.75-4.14-3.75-5.6-6.35-10.6c-.25-.41-.47-.84-.68-1.28l-5.77-12.42c-.12-.25-.23-.51-.33-.76l-6.42-16.32-6.19-17.29c-.1-.28-.21-.56-.33-.83l-5.06-11.54-6.03-12.79-3.79-7.27c-.29-.57-.73-1.05-1.27-1.39-1.4-.9-3.23-.74-4.45.37l-1.31,1.19c-.41.37-.73.84-.94,1.35l-2.12,5.29c-.07.18-.13.36-.17.55l-1.3,5.65c-.14.61-.25,1.23-.32,1.84l-3.08,26.35c-.07.58-.1,1.17-.09,1.75l.15,7.71c.01.69.08,1.39.21,2.07l1.8,9.8,2.58,18.45c.04.27.08.54.14.81l2.78,13.48c.17.82.42,1.63.75,2.4l3.13,7.41c.4.95.92,1.85,1.53,2.68l5.12,6.88c.16.22.33.43.51.64l7.43,8.75c.16.19.33.38.5.56l4.79,5.01c.36.38.71.78,1.02,1.2l3.71,4.9c.81,1.07,1.46,2.25,1.93,3.51l.58,1.55c.97,2.6,1.14,5.4.49,8.09-.12.48-.26.96-.43,1.43l-1.72,4.79-1.31,2.69-2.7,3.26-2.26,1.7-3.85,2.02-4.75,1.59-7.45,1.23-6.22.69h-.05s-14.88-1.37-14.88-1.37l-14.68-2.17-12-1.5-8.34-.19c-.54-.01-1.09-.06-1.63-.13l-7.31-.96c-.87-.11-1.74-.31-2.57-.57l-6.64-2.09c-1.01-.32-1.99-.75-2.91-1.27l-6.37-3.61c-.8-.45-1.55-.98-2.26-1.56-2.02-1.69-3.57-3.9-4.48-6.37l-.35-.96c-.55-1.49-.86-3.06-.92-4.65l-.13-3.33c-.03-.75,0-1.51.08-2.25l.83-7.39c.05-.48.13-.96.23-1.43l6.04-28.79,3.15-12.61,2.08-20.1.95-15.07-.23-7.92-2.34-22.69-6-32.16-3.33-14.97-2.39-12.38.23-10.26,2.32-11.68,2.95-7.53c.67-1.69,1.61-3.25,2.8-4.63l5.02-5.8c.83-.96,1.77-1.82,2.8-2.56h0c2.35-1.68,5.11-2.69,7.98-2.94l1.35-.11c.63-.05,1.26-.07,1.89-.05l7.89.26,13.26.69c.4.02.8.03,1.19.01l15.73-.43,22.02-3.36,19.43-7.23c.31-.12.64-.19.97-.23l6.9-.81c.56-.07,1.12-.02,1.66.14l2.85.84c1.23.36,2.21,1.25,2.69,2.44.36.91.4,1.91.1,2.84l-.64,1.96c-.2.61-.54,1.18-1,1.64l-2.22,2.25c-.41.41-.69.93-.83,1.49l-1.03,4.29c-.17.71-.26,1.44-.26,2.17-.02,5.1,1.2,10.19,3.54,14.72l.06.12c.67,1.31,1.27,2.67,1.76,4.06l4.96,13.85c1.06,2.95,2.35,5.85,3.83,8.61,1.24,2.31,2.36,4.73,3.3,7.17l3.97,10.23c.12.32.28.64.46.93l2.68,4.37c.58.94,1.41,1.7,2.41,2.18,1.81.88,3.99.75,5.69-.35l.53-.34c.64-.42,1.19-.95,1.62-1.58l2.37-3.45c.31-.45.56-.95.73-1.47l3.45-10.5,4.21-14.59,4.03-13.62c.12-.42.29-.82.49-1.21l5.84-11.23c.2-.39.45-.76.72-1.11l7.99-9.99c.32-.4.69-.77,1.1-1.09l9-7.1,7.88-4.01,9.63-1.42,15.45-1.69c1.06-.12,2.14-.16,3.21-.14l4.18.1c3.01.07,5.95.69,8.74,1.84l2.11.87c1.82.75,3.54,1.72,5.13,2.88l.62.45c2.09,1.53,3.84,3.43,5.22,5.62,1.69,2.71,2.64,5.82,2.74,9.01l.07,2.35c.01.32.01.65,0,.97-.07,3.12-.95,6.18-2.55,8.85l-.96,1.61c-.19.31-.38.62-.59.93l-2.02,2.97c-.29.42-.59.83-.92,1.23l-4.9,6.01c-.35.43-.72.84-1.11,1.24l-5.65,5.76-3.17,5.99-3.67,9.86-2.02,9.22.24,16.29,1.46,16.74,1.66,16.98,2.19,20.67,2.14,13.3,3.9,17.01,3.88,18.27,3.75,13.03,6.88,9.07,6.51,7.57c.43.5.84,1.04,1.21,1.59l.82,1.22c1.28,1.89,2.16,3.99,2.61,6.23.25,1.25.36,2.52.34,3.79l-.02.84c-.03,1.45-.25,2.9-.65,4.3l-.13.45c-.27.97-.64,1.93-1.08,2.84l-1.09,2.23c-.43.88-.93,1.73-1.5,2.52l-1.21,1.68c-.48.67-1.02,1.31-1.59,1.9l-1.07,1.11c-1.41,1.46-3.05,2.66-4.88,3.54l-.99.48c-1.16.56-2.39,1-3.65,1.29l-7.94,1.83c-.47.11-.95.2-1.43.27l-16.51,2.37-11.05,1.65c-.5.08-1.02.11-1.52.11ZM188.31,254.8l.2,7.57c.01.47.06.94.14,1.4l.3,1.65c.3,1.66,1.04,3.2,2.14,4.47.64.73,1.38,1.35,2.2,1.85l5.22,3.16c.96.58,2,.98,3.11,1.19l12.31,2.31c.49.09,1,.15,1.51.16l15.71.36c.53.01,1.06-.02,1.59-.1l11.05-1.65,16.52-2.37c.45-.06.9-.15,1.35-.25l7.94-1.83c1.19-.27,2.34-.68,3.44-1.21l.99-.48c1.72-.84,3.27-1.96,4.6-3.34l1.07-1.11c.54-.56,1.04-1.16,1.49-1.79l1.21-1.68c.53-.74,1.01-1.54,1.41-2.37l1.09-2.23c.42-.86.76-1.76,1.02-2.67l.13-.45c.37-1.32.58-2.68.61-4.05l.02-.84c.03-1.2-.08-2.4-.32-3.57-.43-2.11-1.25-4.08-2.46-5.87l-.82-1.22c-.35-.52-.73-1.02-1.14-1.5l-6.53-7.6-7.04-9.33-3.79-13.16-3.88-18.3-3.9-17.03-2.15-13.36-2.19-20.7-1.66-16.99-1.46-16.79-.24-16.44,2.06-9.4,3.72-9.99,3.31-6.23,5.71-5.81c.37-.37.72-.77,1.05-1.17l4.9-6.01c.3-.37.59-.76.86-1.16l2.03-2.97c.2-.29.38-.58.56-.87l.96-1.61c1.51-2.53,2.34-5.42,2.41-8.36,0-.31,0-.61,0-.92l-.07-2.35c-.09-3.01-.99-5.95-2.59-8.51-1.31-2.09-2.98-3.89-4.96-5.35l-.62-.45c-1.52-1.12-3.17-2.05-4.92-2.77l-2.11-.87c-2.67-1.1-5.5-1.7-8.38-1.76l-4.18-.1c-1.03-.02-2.06.02-3.07.13l-15.43,1.69-9.53,1.4-7.57,3.87-8.92,7.04c-.35.27-.66.58-.94.93l-7.99,9.99c-.23.29-.44.61-.62.95l-5.84,11.23c-.17.33-.31.68-.42,1.03l-4.03,13.62-4.21,14.61-3.45,10.51c-.2.61-.49,1.19-.85,1.72l-2.37,3.45c-.51.74-1.15,1.36-1.9,1.85l-.53.34c-1.98,1.29-4.54,1.45-6.67.41-1.17-.57-2.14-1.45-2.82-2.56l-2.68-4.37c-.21-.35-.4-.72-.54-1.1l-3.97-10.23c-.93-2.41-2.03-4.78-3.25-7.06-1.51-2.8-2.82-5.75-3.89-8.75l-4.96-13.85c-.48-1.34-1.06-2.67-1.71-3.94l-.06-.12c-2.41-4.67-3.68-9.92-3.65-15.18,0-.81.1-1.62.29-2.4l1.03-4.29c.18-.74.55-1.42,1.09-1.96l2.22-2.25c.35-.35.61-.78.76-1.25l.64-1.96c.23-.71.2-1.47-.07-2.16-.36-.91-1.11-1.58-2.05-1.86l-2.85-.84c-.41-.12-.83-.16-1.26-.11l-6.9.81c-.25.03-.5.09-.74.18l-19.57,7.28-22.13,3.38-15.79.43c-.43.01-.85,0-1.27-.02l-13.25-.69-7.88-.26c-.58-.02-1.18,0-1.77.05l-1.35.11c-2.7.23-5.29,1.18-7.49,2.76h0c-.97.69-1.85,1.5-2.63,2.4l-5.02,5.8c-1.12,1.29-2,2.75-2.63,4.34l-2.93,7.44-2.28,11.5-.22,10.07,2.37,12.26,3.33,14.97,6.01,32.22,2.35,22.76.23,8.01-.96,15.14-2.09,20.19-3.16,12.66-6.04,28.77c-.09.44-.16.88-.21,1.33l-.83,7.39c-.08.7-.1,1.4-.08,2.1l.13,3.33c.06,1.49.35,2.95.86,4.34l.35.96c.85,2.31,2.3,4.37,4.18,5.95.65.55,1.36,1.04,2.11,1.46l6.37,3.61c.86.49,1.77.89,2.72,1.18l6.64,2.09c.78.25,1.59.43,2.4.53l7.31.96c.5.07,1.02.11,1.52.12l8.39.19,12.07,1.5,14.67,2.17,14.8,1.35,6.09-.67,7.35-1.21,4.6-1.54,3.71-1.95,2.14-1.62,2.54-3.09,1.2-2.48,1.7-4.74c.16-.43.29-.88.4-1.32.6-2.5.45-5.1-.46-7.51l-.58-1.55c-.44-1.17-1.04-2.26-1.79-3.26l-3.71-4.9c-.3-.39-.62-.76-.95-1.12l-4.79-5.01c-.19-.2-.37-.4-.54-.6l-7.43-8.75c-.19-.23-.37-.46-.55-.69l-5.12-6.88c-.66-.89-1.22-1.86-1.65-2.89l-3.13-7.41c-.35-.83-.62-1.7-.8-2.59l-2.78-13.48c-.06-.29-.11-.58-.15-.88l-2.58-18.43-1.8-9.78c-.14-.74-.21-1.49-.23-2.24l-.15-7.71c-.01-.63.02-1.26.09-1.88l3.08-26.35c.08-.65.19-1.31.34-1.95l1.3-5.65c.05-.24.13-.47.22-.69l2.12-5.29c.26-.65.67-1.24,1.19-1.71l1.31-1.19c1.56-1.42,3.89-1.62,5.67-.47.68.44,1.24,1.05,1.62,1.77l3.79,7.29,6.05,12.82,5.06,11.55c.13.29.25.59.35.89l6.18,17.27,6.41,16.3c.09.24.2.48.3.71l5.77,12.42c.19.4.4.8.63,1.18l6.33,10.58,3.69,5.5,5.48,3.9,5.93,1.53,6.06-.27,4.97-1.08,3.99-2.27,3.27-4.09,2.33-4.8,3.24-8.26,4.92-19.64,6.54-27.42,3.02-10.47c.06-.22.13-.43.21-.64l3.44-9.06c.1-.26.21-.51.33-.76l2.71-5.43c.53-1.06,1.26-1.97,2.18-2.71l2.1-1.71c1.52-1.24,3.44-1.9,5.4-1.85h.1c1.78.04,3.46.64,4.86,1.72,1.25.97,2.19,2.26,2.73,3.75l.67,1.86c.34.96.51,1.96.48,2.98l-.4,17.69c0,.18-.01.37-.03.55l-1.62,18.09-4.59,22.01-.69,12.98-2.13,12.67-4,10.54-4,5.42-7.99,8.04-8.36,9.19-5.24,5.21-3.72,3.95-2.91,4.92-1.33,5.75Z"/>
    </g>
  </g>
  <g id="b" data-name="Layer 2">
    <path class="n" d="M296.57,44.78l2.92-4.36c.28-.42.52-.85.72-1.31l3.93-8.76,2.16-4.68c.32-.69.72-1.34,1.21-1.92h0c1.36-1.66,3.28-2.76,5.39-3.12l2.44-.41c.56-.09,1.12-.13,1.68-.12l17.73.4,19.36-.82,22.06,1.76,18.5,3.94,9.13,2.38c.95.25,1.85.63,2.68,1.15l1.89,1.18c1.77,1.1,3.14,2.74,3.91,4.69h0c.48,1.2.7,2.49.68,3.79l-.05,2.17c-.03,1.41-.37,2.8-1,4.07l-2.26,4.58c-.15.3-.31.59-.49.87l-7.03,11.22-5.47,8.67-2.68,4.48c-1.86,3.11-3.3,6.46-4.28,9.95v.05c-1.02,3.6-1.53,7.31-1.53,11.05h0c0,3.43.44,6.85,1.29,10.18l.03.12c.81,3.14,1.99,6.17,3.51,9.03l.6,1.12c.96,1.8,2.06,3.54,3.28,5.18l7.67,10.31,12.72,15.11,11.49,13.82,10.73,14.06,14.36,20.17,7.29,10.97,11.51,13.07,8.9,9.55c.44.47.9.94,1.37,1.39l5.76,5.52c1.59,1.52,3.32,2.89,5.17,4.09l5.16,3.34c1.14.74,2.25,1.53,3.33,2.37l1.13.88c3.89,3.03,7.18,6.77,9.69,11.02h0c1.15,1.95,1.74,4.19,1.69,6.46h0c-.03,1.52-.35,3.02-.94,4.43l-.13.3c-1.22,2.91-3.53,5.24-6.43,6.48l-1.13.48c-.35.15-2.41.78-3.52,1.11-.43.13-.86.24-1.29.34l-6.36,1.44c-.56.13-1.12.23-1.69.3l-14.3,1.93-18.62,1.59-16.14,1.5c-.65.06-1.3.09-1.95.08l-4.95-.04c-1.54-.01-3.08-.21-4.58-.58l-2.54-.63c-1.36-.34-2.63-.95-3.74-1.81l-3.43-2.65c-.65-.5-1.23-1.08-1.74-1.73l-2.04-2.59c-1.2-1.52-1.93-3.35-2.12-5.27h0c-.24-2.51.47-5.02,1.99-7.03h0c.88-1.16,1.96-2.15,3.19-2.92l4.01-2.49c.5-.31,1.02-.58,1.56-.81l6.58-2.79c.31-.13.63-.25.95-.36h0c3.36-1.08,6.03-3.67,7.23-7h0c.17-.46.24-.96.2-1.45l-.29-4.29c-.16-2.35-.84-4.63-2-6.68l-2.09-3.7-7.26-7.83c-.55-.6-1.13-1.17-1.73-1.72l-8.69-7.93-10.82-10.29-9.74-9.27c-.72-.68-1.41-1.39-2.07-2.12l-4.92-5.42c-2.26-2.49-4.77-4.72-7.51-6.66l-2.66-1.89c-.59-.42-1.22-.78-1.89-1.08l-5.41-2.44c-1.19-.54-2.46-.86-3.76-.96l-3.25-.25c-2.63-.2-5.24.53-7.39,2.06h0c-1.83,1.31-3.22,3.14-4,5.25l-1.37,3.72c-.43,1.16-.66,2.39-.69,3.62l-.08,3.39c-.05,2.18.04,4.36.27,6.53l.37,3.48c.22,2.05.59,4.08,1.12,6.07l.88,3.33c.58,2.18,1.34,4.31,2.28,6.36h0c1.45,3.17,3.3,6.15,5.52,8.84h.01c1.83,2.24,3.9,4.26,6.17,6.05l1.23.97c2.81,2.21,5.91,4.04,9.21,5.43l3.11,1.31c.92.39,1.84.74,2.79,1.05l8.34,2.8c.97.33,1.91.77,2.78,1.3l1.87,1.15c2.59,1.6,4.56,4.02,5.59,6.89h0c.81,2.25,1.01,4.67.58,7.02l-.18.96c-.39,2.11-1.28,4.09-2.59,5.79l-.82,1.06c-.54.7-1.15,1.34-1.81,1.92l-4.53,3.95c-1.42,1.24-3.09,2.16-4.89,2.72l-10.67,3.28-13.24,2.87c-.26.06-.52.11-.79.15l-13.97,2.2-15.97,1.7c-.6.06-1.2.09-1.8.08l-14.16-.32-1.05-.02c-2.78-.06-5.53-.67-8.08-1.8h0c-.9-.4-1.71-.97-2.38-1.69l-.37-.39c-1.02-1.09-1.67-2.47-1.87-3.95h0c-.22-1.63.12-3.28.97-4.69l1.82-3.03,4.42-6.68.97-1.55c2.11-3.38,3.44-7.19,3.91-11.15h0c.16-1.33.21-2.67.17-4.01l-.07-2.2c-.1-3.2-.78-6.35-1.99-9.31l-2.93-7.18-3.45-6.74c-1.86-3.63-3.97-7.14-6.31-10.49h0c-3-4.3-5.62-8.85-7.83-13.6l-4.82-10.37-6.68-15.72h0s-5.08-19.71-5.08-19.71l-4.32-19.69-2.34-13.05c-.82-4.57-1.18-9.22-1.07-13.86l.11-5.03c.14-6.03,1.05-12.01,2.73-17.8l.9-3.1c1.71-5.9,4.19-11.55,7.38-16.81h0c2.01-3.31,4.29-6.44,6.82-9.37l4.35-5.04c.24-.28.46-.57.66-.87Z"/>
    <path class="o" d="M353.5,63.87l-2.28-.05c-.74-.02-1.48.09-2.19.3l-.93.29c-1.64.51-3.03,1.61-3.91,3.08l-2.17,3.68c-.09.15-.17.3-.24.45l-3.57,7.22-5.22,8.67-4.94,7.97c-.18.3-.38.59-.58.88l-1.5,2.1c-1.37,1.91-2.29,4.11-2.7,6.43l-.32,1.8c-.14.79-.22,1.59-.24,2.39l-.06,2.56c-.06,2.64.54,5.25,1.75,7.59h0c.69,1.34,1.57,2.57,2.61,3.66l.85.89c1,1.05,2.14,1.95,3.39,2.69l4.32,2.55,7.68,4.7,2.09,1.34c1.55,1,3.34,1.54,5.18,1.59l3,.07c.97.02,1.95-.1,2.88-.36l3.03-.83c2.04-.56,3.84-1.75,5.16-3.4h0c1.37-1.71,2.13-3.83,2.18-6.02l.05-2.4v-.03c.07-3.21-1.05-6.34-3.14-8.78h0c-.76-.89-1.4-1.87-1.9-2.93l-2.02-4.28c-.7-1.49-1.12-3.1-1.22-4.74l-.35-5.62c-.03-.46-.03-.93-.01-1.39l.42-9.45c.05-1.1.19-2.19.42-3.27l1.58-7.44c.03-.13.05-.26.07-.39l.49-3.22c.23-1.52-.05-3.07-.79-4.41h0c-.81-1.46-2.12-2.57-3.69-3.13l-1-.36c-.7-.25-1.43-.39-2.17-.4Z"/>
  </g>
  <g id="c" data-name="Layer 3">
    <path class="n" d="M469.86,34.09l-5.25-1.1c-1.14-.24-2.29-.37-3.45-.4l-1.85-.04c-3.41-.08-6.77.76-9.75,2.43h0c-1.68.95-3.21,2.14-4.53,3.55-2.73,2.91-7.29,7.76-7.29,7.76l-6.88,7.09c-2.13,2.19-4.09,4.54-5.88,7.02h0c-2.13,2.95-3.99,6.07-5.58,9.34l-3.59,7.38-2.96,8.41c-.97,2.77-1.5,5.67-1.57,8.61h0c-.05,2.39.2,4.77.75,7.09l.24,1.02c.93,3.89,2.68,7.53,5.14,10.68l1.94,2.49c.74.95,1.55,1.85,2.41,2.7l7.32,7.21,4.09,3.73c3.86,3.52,7.46,7.32,10.77,11.37l2.36,2.88c3.17,3.87,6.06,7.96,8.66,12.23l6.33,10.39,6.66,10.24c2.39,3.68,5.01,7.21,7.84,10.57l14.16,16.86,13.13,14.8,6.8,6.61c2.55,2.48,4.84,5.22,6.82,8.18l2.12,3.16c.94,1.41,1.82,2.87,2.62,4.37l2.25,4.21c.68,1.28,1.31,2.59,1.88,3.93l4.06,9.5,2.65,9.11c.15.53.33,1.05.52,1.56l1.55,4.1c.73,1.92,1.73,3.73,2.99,5.36h0c1.69,2.2,3.79,4.04,6.19,5.42.94.54,1.93,1.11,2.81,1.62,1.71.99,3.55,1.73,5.47,2.2l8.76,2.16c1.49.37,3.02.57,4.56.61l22.53.51,17.84-.73c2.09-.09,4.16-.48,6.14-1.18h0c3.84-1.35,7.2-3.78,9.69-7,1.55-2,3.27-4.24,4.57-5.92s2.52-3.64,3.49-5.64l3.98-8.19c1.44-2.97,2.42-6.14,2.91-9.4h0c.72-4.86.33-9.83-1.14-14.52l-.12-.37c-.97-3.08-1.65-6.25-2.04-9.46h0c-.75-6.18-.32-12.45,1.26-18.48l2.33-8.88,1.93-9.08c.06-.31.14-.61.24-.91l.9-2.84c.59-1.88.6-3.89.02-5.77h0c-.67-2.18-2.09-4.05-4-5.28l-2.43-1.57c-1.64-1.06-3.56-1.59-5.51-1.54l-12.29.35-25.12.21-16.57.14-9.67,1.28c-1.33.18-2.61.63-3.76,1.32l-1.18.71c-1.85,1.12-3.28,2.83-4.05,4.85l-1.03,2.69c-.35.91-.56,1.88-.62,2.85l-.11,1.64c-.13,2.01.37,4.01,1.42,5.73h0c.74,1.2,1.73,2.23,2.91,3.01l7.18,4.76c1.84,1.22,3.63,2.52,5.36,3.9l4.51,3.6c3.06,2.44,5.89,5.14,8.47,8.09l.18.21c2.84,3.25,5.4,6.74,7.64,10.43l1.61,2.66c.5.83.87,1.73,1.08,2.67l.34,1.51c.34,1.49.28,3.03-.15,4.49l-.14.46c-.76,2.54-2.61,4.61-5.04,5.66h0c-1.23.52-2.55.77-3.88.71-1.66-.07-4.07-.18-6.15-.27-2.82-.12-5.58-.73-8.19-1.8l-1.69-.69c-2.64-1.08-5.05-2.64-7.14-4.58h0c-2.49-2.33-4.49-5.14-5.86-8.27-1.28-2.9-2.64-6.04-2.64-6.04l-6.82-15.59c-.87-1.99-1.86-3.92-2.96-5.78l-2.21-3.73c-2.08-3.51-4.55-6.77-7.36-9.72h0c-4.07-4.26-8.59-8.05-13.5-11.31l-1.17-.78c-1.56-1.04-3.04-2.18-4.43-3.43l-14.49-13-11.01-12.24c-.74-.82-1.4-1.71-1.98-2.66l-7.73-12.62c-.59-.96-1.09-1.98-1.49-3.04l-2.1-5.52c-2.58-6.79-4.04-10.76-5.34-17.5-.17-.9-.27-1.82-.28-2.74l-.04-5.59c-.01-2.28.5-4.53,1.51-6.57h0c1.57-3.17,4.06-5.8,7.14-7.54h0c2.39-1.35,5.11-1.99,7.85-1.86l1.32.06c3.17.15,6.25,1.09,8.97,2.72l3.73,2.25c1.89,1.14,3.62,2.52,5.15,4.12l5.63,5.89c.61.64,1.19,1.32,1.74,2.02l.28.37c3.15,4.1,5.39,8.82,6.58,13.85h0c.47,1.99.4,4.07-.19,6.03l-1.91,6.28c-.1.33-.22.66-.35.99l-3.88,9.53c-.27.67-.44,1.39-.49,2.11l-.11,1.54c-.13,1.94.57,3.85,1.93,5.24h0c1.43,1.46,3.44,2.21,5.47,2.04l9.56-.81c1.1-.09,2.2-.24,3.28-.43l16.55-2.96c.71-.13,1.41-.23,2.13-.32l17.37-2.04,8.53-1.22c.55-.08,1.09-.19,1.62-.33l2.46-.64c2.63-.69,5.02-2.1,6.9-4.07h0c1.6-1.68,2.78-3.72,3.43-5.95l.84-2.83c.64-2.17.77-4.45.37-6.68l-.02-.14c-1.39-7.87-5.13-15.13-10.74-20.82h0s-13.11-9.92-13.11-9.92c-1.61-1.22-3.27-2.37-4.97-3.47l-17.1-10.98-10.98-7.16c-2.55-1.66-4.99-3.47-7.32-5.43l-4-3.35c-2.62-2.2-5.34-4.28-8.14-6.24l-1.94-1.36c-5.07-3.55-10.41-6.69-15.97-9.41l-1.98-.96c-1.65-.8-3.34-1.5-5.08-2.08l-9.54-3.19c-1.32-.44-2.66-.84-4-1.19l-8.92-2.31Z"/>
  </g>
  <g id="d" data-name="Layer 4">
    <path class="n" d="M622.39,12.73l-3.88-.68c-6.6-1.15-13.27-1.8-19.96-1.95l-5.82-.13c-3.69-.08-7.39-.02-11.07.21l-10.28.62c-6.29.38-12.54,1.19-18.71,2.45l-5.89,1.2-14.94,3.06-10.63,3.79c-.58.21-1.13.48-1.65.82l-1.89,1.24c-1.01.66-1.85,1.54-2.46,2.58l-.03.05c-.67,1.14-1.04,2.44-1.07,3.76h0c-.04,1.6.42,3.17,1.31,4.5l1.84,2.75c.43.64.94,1.21,1.54,1.7l3.4,2.79c1.49,1.22,3.05,2.35,4.68,3.37l10.47,6.58c.98.62,1.94,1.28,2.86,1.98l14.42,11.03,21.15,13.97,18.43,15.02,8.74,8.99c2.85,2.93,5.36,6.16,7.5,9.65h0c2.25,3.67,4.07,7.57,5.43,11.65,1.69,5.04,3.74,11.25,3.74,11.25l.77,2.23c1.85,5.37,4.4,10.47,7.58,15.18h0c.97,1.43,1.99,2.82,3.06,4.17,3.5,4.39,11.48,14.39,11.48,14.39l7.42,10.75c1.77,2.57,3.11,5.42,3.96,8.43l3.7,13.1c.77,2.73,1.13,5.55,1.06,8.38l-.32,13.92-.43,19.05c-.03,1.45-.18,2.89-.43,4.32h0c-.89,5.02-3.12,9.72-6.44,13.59-.68.79-1.15,1.34-1.15,1.34l-.64.64c-3.71,3.67-6.87,7.87-9.37,12.45h0c-1.26,2.31-1.95,4.89-2.01,7.51-.03,1.14-.05,2.07-.05,2.07l-.03,1.17c-.05,2.02.8,3.97,2.32,5.31l.02.02c.74.65,1.61,1.14,2.56,1.42h0c5.38,1.61,11.01,2.24,16.61,1.86,1.66-.11,3.09-.21,3.72-.25.24-.02.47-.04.71-.08l6.48-.99c1.91-.29,3.83-.5,5.76-.62l12.44-.77c1.8-.11,3.61-.15,5.42-.11l10.62.24c2.23.05,4.46-.02,6.68-.2l4.67-.39c1.88-.16,3.72-.68,5.4-1.54h0c2.68-1.38,4.87-3.56,6.26-6.23.42-.81.83-1.6,1.16-2.24.46-.89.72-1.85.77-2.85v-.14c.11-1.87-.43-3.72-1.52-5.25l-.08-.1c-2.59-3.62-6.12-6.43-10.21-8.14-.72-.3-1.2-.51-1.2-.51l-2.18-1.15c-3.03-1.6-5.75-3.72-8.05-6.26h0c-2.22-2.45-4.01-5.25-5.3-8.3-.23-.54-.46-1.08-.68-1.6-1.01-2.37-1.7-4.86-2.05-7.41l-.11-.78c-.65-4.64-.88-9.34-.67-14.02l.86-19.48-.04-19.2c0-2.62.09-5.24.29-7.85l.89-11.73c.29-3.82.36-7.66.22-11.49l-.3-7.86c-.29-7.61.22-15.22,1.51-22.72h0c.16-.9.46-1.77.91-2.57,1.88-3.37,7.04-12.65,7.04-12.65l6.52-9.23c7.16-10.14,15.36-19.51,24.46-27.95h0c3.95-3.66,8.26-6.91,12.87-9.7,1.95-1.18,3.96-2.39,5.51-3.32,1.88-1.13,3.67-2.4,5.37-3.79l9.81-8.05,8.9-7.76,1.99-1.7c.98-.83,1.76-1.88,2.27-3.06h0c.66-1.51.86-3.18.58-4.81-.08-.49-.17-1.01-.26-1.52-.32-1.85-1.24-3.54-2.63-4.81h0c-4.44-4.07-9.8-7-15.63-8.54-3.2-.85-6.03-1.6-6.03-1.6l-9.55-1.56c-6.21-1.01-12.51-1.3-18.79-.85l-6.7.48-9.99,1.74c-3.61.63-7.17,1.53-10.65,2.7l-5.86,1.97-7.49,2.53c-.6.2-1.15.54-1.61.97h0c-.91.87-1.4,2.09-1.34,3.35l.09,1.78c.05,1.01.45,1.96,1.13,2.7l.81.88c1.06,1.15,1.86,2.51,2.34,3.99l.02.06c.48,1.49.63,3.04.46,4.58-.21,1.85-.46,4.14-.46,4.14-.17,1.56-.67,3.06-1.48,4.4l-4.67,11.22-9.14,22.62-6.87,18.43-1.96,4.53c-.68,1.57-1.85,2.88-3.35,3.71h0c-1.84,1.04-4.03,1.26-6.05.63l-1.9-.6c-.86-.27-1.63-.74-2.27-1.38h0c-2.35-2.36-4.25-5.13-5.62-8.17-.58-1.28-1.18-2.63-1.72-3.83-1.08-2.44-2.31-4.81-3.66-7.1l-2.47-4.19c-2.57-4.35-5.61-8.4-9.07-12.07l-6.64-7.06-6.48-6.61c-.74-.76-1.36-1.63-1.84-2.57l-1-2c-.89-1.76-1.23-3.75-.99-5.71v-.07c.22-1.72.85-3.33,1.85-4.73.81-1.14,1.84-2.57,2.78-3.89,1.83-2.56,3.91-4.93,6.2-7.08l2.42-2.26c.69-.64,2.05-1.98,2.45-2.84l1.65-3.45c.5-1.08.74-2.28.67-3.47v-.2c-.13-2-1.06-3.87-2.59-5.16h0c-.97-.82-2.13-1.37-3.37-1.61-2.71-.51-7.37-1.38-7.37-1.38Z"/>
  </g>
  <g id="e" data-name="Layer 12">
    <path class="n" d="M131.55,298.13l2.52.07c1.89.05,3.69.82,5.03,2.16h0c1.45,1.44,2.24,3.42,2.18,5.46h0c-.06,2.04-.53,4.05-1.4,5.91l-.22.48c-.65,1.4-1.09,2.89-1.28,4.43l-.77,6.06.1,7.2c.03,1.92.31,3.83.84,5.68h0c1.15,3.99,1.12,8.23-.06,12.21h0c-.52,1.75-1.41,3.38-2.61,4.76h0c-3.89,4.5-9.13,7.63-14.94,8.91l-2.88.64c-1.13.25-2.29.36-3.45.33l-18.42-.5-13.99.09c-.61,0-1.21.05-1.82.13l-4.87.66c-1.44.2-2.82.74-4,1.59h0c-2.27,1.63-3.65,4.23-3.73,7.02h0c-.04,1.48.39,2.94,1.24,4.16l.18.26c1.18,1.7,2.98,2.86,5.01,3.25l1.52.29c1.34.26,2.72.16,4.01-.27l3.6-1.21c.5-.17.99-.38,1.45-.64l1.19-.66c1.22-.68,2.59-1.05,3.98-1.08l4.58-.1c1.13-.03,2.25.17,3.3.58h0c2.65,1.03,4.61,3.3,5.26,6.06l1.18,5.08c.04.15.06.31.07.46l.7,8.31c.16,1.88.13,3.78-.09,5.66l-1.01,8.74c-.13,1.08-.19,2.17-.19,3.26v9.73c0,.69.02,1.39.07,2.08l.47,6.53c.04.57.1,1.14.18,1.71l1.38,10.32c.17,1.26.11,2.54-.17,3.77h0c-.64,2.81-2.4,5.24-4.86,6.73l-.85.52c-.84.51-1.76.9-2.71,1.16l-5.5,1.5c-1.91.52-3.88.76-5.86.7l-9.94-.27c-1.13-.03-2.27.1-3.36.4l-.44.12c-1.48.4-2.87,1.08-4.09,2.02l-.22.17c-.73.56-1.39,1.21-1.97,1.92h0c-.74.92-1.34,1.94-1.78,3.03l-.72,1.81c-.33.83-.51,1.72-.52,2.61l-.02,1.52c-.01,1.3.32,2.57.97,3.69l.23.4c.86,1.49,2.23,2.63,3.86,3.2h0c.66.23,1.36.37,2.06.4l6.88.33c1.09.05,2.19.01,3.27-.12l5.94-.71c1.56-.19,3.09-.56,4.56-1.12l5.39-2.03c2.53-.95,4.79-2.51,6.58-4.54l2.72-3.09c.71-.8,1.3-1.7,1.76-2.66l4.14-8.68c.34-.71.6-1.46.77-2.22l.76-3.31c.58-2.54,1.89-4.86,3.76-6.67h0c2.42-2.35,5.87-3.32,9.16-2.58h0c2.04.46,3.75,1.83,4.63,3.73l.32.69c.97,2.08,1.68,4.26,2.13,6.51l1.92,9.72,1.48,9.93c.35,2.38.91,4.73,1.67,7.01l1.35,4.05c1.53,4.59,2.24,9.41,2.11,14.25l-.06,2.32c-.05,1.69-.34,3.37-.86,4.98l-.31.95c-1.63,4.99-5.39,8.99-10.28,10.91h0c-2.2.87-4.56,1.28-6.92,1.22l-14.89-.4-7.14-.19c-4.75-.13-9.49.27-14.15,1.2l-7.78,1.54-15.22,3.41-14.37,2.94-5.94-.16c-1.59-.04-3.13-.61-4.38-1.6h0c-1.53-1.22-2.5-3-2.71-4.95l-1.08-10.24-1.35-12.41c-.16-1.46-.26-2.92-.3-4.39l-.45-17.13c-.02-.95-.02-1.89,0-2.84l.45-16.67c.05-1.9.2-3.8.46-5.68l1.65-12.26c.3-2.25.46-4.52.48-6.79l.12-17.99,1.56-27.78c.1-1.75.11-3.5.04-5.25l-.83-19.69-.43-9.73c-.08-1.76-.24-3.52-.49-5.26l-2.36-16.35-1.49-8.29c-.12-.67-.17-1.35-.15-2.03l.16-6.08c.05-1.9.65-3.75,1.72-5.32h0c1.27-1.87,3.15-3.25,5.32-3.9l3.81-1.16c.67-.2,1.36-.33,2.05-.39l9.38-.79,15.81-.34,13.93-2.32,11.99-1.73,11.17.3,12.71.34,11.44.31Z"/>
  </g>
  <g id="f" data-name="Layer 5">
    <path class="n" d="M207.94,303.96l-7.86-2.07-7.75-1.59c-1.74-.36-3.51-.56-5.29-.61l-10.06-.27-5.71-.15c-3.27-.09-6.52.39-9.63,1.41l-6.49,2.13c-.8.26-1.57.61-2.3,1.04h0c-4.17,2.45-7.41,6.22-9.21,10.72l-.03.07c-.45,1.12-.7,2.32-.73,3.53l-.14,5.23c-.02.69.03,1.39.15,2.07l1.34,7.57c.06.32.13.64.22.96l1.9,6.77c.48,1.7.75,3.45.82,5.22h0c.11,2.84-.31,5.68-1.25,8.36l-2.35,6.72-1.79,6.96c-.19.72-.45,1.42-.8,2.09l-2.59,4.99c-.69,1.32-1.07,2.78-1.11,4.27h0c-.04,1.41.23,2.8.77,4.1l.68,1.62c.44,1.04,1.05,2,1.82,2.83l3.94,4.3c1.25,1.36,2.65,2.58,4.17,3.62l6.81,4.69,10.25,6.53,11.23,4.47,5.03,1.26c2.15.54,4.18,1.48,5.99,2.77l4.36,3.12c1.32.95,2.51,2.07,3.53,3.35l6.98,8.74,3.66,5.21c1.86,2.64,3.23,5.59,4.07,8.71l1.5,5.6c.4,1.52.68,3.06.82,4.63l.47,5.21c.26,2.84.07,5.69-.55,8.47l-.38,1.7c-.51,2.3-1.79,4.36-3.63,5.83l-2.36,1.91c-.79.64-1.68,1.16-2.62,1.54l-.8.32c-3.29,1.33-7.02.9-9.92-1.14h0c-.99-.7-1.84-1.56-2.53-2.55l-3.45-4.94c-1.6-2.3-2.76-4.87-3.41-7.59l-1.11-4.63c-.54-2.23-.73-4.54-.57-6.83l.51-7.18.62-8.36c.08-1.05.02-2.1-.17-3.14v-.02c-.59-3.17-2.41-5.98-5.05-7.81h0c-1.62-1.12-3.48-1.84-5.44-2.09l-4.53-.58c-1.15-.15-2.31-.24-3.47-.27l-4.4-.12c-3.75-.1-7.5.4-11.09,1.49l-4.12,1.25c-.64.19-1.26.46-1.84.8l-2.9,1.68c-1.53.88-2.75,2.21-3.51,3.8h0c-.53,1.1-.82,2.3-.85,3.53l-.09,3.4c-.04,1.43.13,2.86.51,4.24l1.5,5.54c.31,1.14.75,2.23,1.32,3.27l3.56,6.44,4.11,5.74c.98,1.36,1.79,2.83,2.44,4.38l.66,1.59c.79,1.91,1.32,3.92,1.55,5.97l.96,8.29,1.25,7.82c.35,2.22.98,4.39,1.87,6.46l2.41,5.61c.98,2.3,2.28,4.44,3.85,6.39l2.86,3.53c1.74,2.15,3.79,4.03,6.09,5.56l3.28,2.19c2.01,1.34,4.19,2.41,6.48,3.17l3.26,1.09c2.55.85,5.22,1.32,7.91,1.4l6.33.17c2.78.08,5.56-.26,8.24-.99l9.2-2.51c.97-.26,1.92-.58,2.85-.94l13.75-5.36c1.76-.68,3.44-1.54,5.03-2.56l3.74-2.4c3.76-2.41,7.18-5.3,10.2-8.59l4.74-5.18c.98-1.07,1.85-2.23,2.61-3.47l2.7-4.4c1.63-2.65,2.82-5.54,3.53-8.56l1.38-5.88c.45-1.93.71-3.89.76-5.87l.23-8.36-.41-8.22c-.13-2.55-.62-5.06-1.48-7.47l-4.52-12.75-4.02-11.23c-.33-.93-.73-1.84-1.2-2.71l-4.39-8.27c-1.01-1.91-2.25-3.69-3.69-5.31l-.98-1.1c-2.52-2.83-5.61-5.11-9.07-6.67l-6.4-2.9-9.96-4.33c-2.22-1.15-4.57-2.02-7-2.59l-10.73-2.54-7.92-2.97c-1.81-.68-3.44-1.74-4.79-3.12l-3.23-3.3c-1.13-1.15-2.03-2.5-2.67-3.97l-2.51-5.78c-.73-1.69-1.34-3.42-1.81-5.2l-2.02-7.6-.89-5.17c-.46-2.68-.02-5.44,1.27-7.84l.05-.1c.74-1.38,1.94-2.45,3.39-3.03h0c1.7-.68,3.61-.61,5.26.17l3.72,1.76c.96.46,1.8,1.14,2.44,1.98l2.64,3.49c1.76,2.32,3.16,4.89,4.17,7.62l1.32,3.59c.41,1.1.75,2.22,1.02,3.36l1.13,4.73c.01.06.02.12.02.18l-.05,1.84c-.07,2.47-1.09,4.83-2.85,6.57h0c-.15.15-.28.31-.39.49l-.74,1.19c-.52.83-.54,1.89-.05,2.74h0c.27.47.67.85,1.16,1.08l3.43,1.65,7.87,2.2,9.38,3.05,6.33,2.61,7.46,4.17,3.86,1.6c.98.41,2.04.59,3.1.54h0c1.25-.06,2.47-.45,3.52-1.13l.86-.55c.84-.54,1.46-1.35,1.77-2.31h0c.27-.85.27-1.76,0-2.6l-.91-2.89c-.17-.53-.44-1.03-.79-1.45l-1.58-1.9c-1.09-1.31-2.04-2.72-2.86-4.21l-4.06-7.45c-.43-.79-.9-1.56-1.41-2.3l-3.56-5.18c-1.28-1.86-2.38-3.84-3.3-5.9l-1.21-2.72c-.94-2.11-1.68-4.31-2.21-6.56l-1.45-6.13-1.8-10.33-1.66-10.6-.62-3.05c-.32-1.59-.87-3.12-1.62-4.56h0c-.91-1.74-2.11-3.31-3.56-4.64l-.2-.19c-.58-.54-1.19-1.03-1.84-1.48l-.22-.15c-1.65-1.15-3.5-2-5.44-2.51Z"/>
  </g>
  <g id="g" data-name="Layer 6">
    <path class="n" d="M272.58,299.3c-1.07-.36-2.19-.56-3.32-.59l-5.34-.14-6.14-.17c-1.23-.03-2.46.03-3.68.19l-5.72.74-5.32.78c-.84.12-1.66.29-2.48.5l-2,.52c-1.71.44-3.37,1.07-4.94,1.88l-1.63.84-2.66,1.28c-1.03.5-1.88,1.32-2.4,2.35h0c-.35.7-.55,1.46-.57,2.24v.15c-.04,1.27.39,2.51,1.2,3.49l.47.56.29.32c1.59,1.76,2.71,3.89,3.26,6.19l.99,4.16,2.3,11.27c.19.93.35,1.86.47,2.8l.86,6.37c.36,2.64.96,5.23,1.8,7.76l1.7,5.12c.53,1.58,1.22,3.11,2.05,4.55l5.44,9.37c1.28,2.21,2.41,4.51,3.36,6.88l5.92,14.72c.34.84.64,1.69.92,2.55l4.22,13.07c.66,2.06,1.5,4.05,2.5,5.97l3.42,6.57c1.51,2.89,2.66,5.96,3.44,9.13l2.66,10.85,3.26,25.8c.06.49.14.98.24,1.47l1.16,5.96c.47,2.43.54,4.92.2,7.37h0c-.4,2.91-1.36,5.72-2.83,8.26l-3.86,6.67c-.38.66-.81,1.3-1.28,1.91l-6.88,8.98c-.48.62-.83,1.33-1.05,2.08l-.98,3.44c-.25.89-.3,1.82-.15,2.72l.12.71c.27,1.61,1.15,3.04,2.47,4h0c1.02.74,2.24,1.16,3.5,1.2l6.66.18c1.38.04,2.76-.05,4.13-.27l19.27-3.04,15.05-2.38c1.88-.3,3.71-.83,5.44-1.6l5.97-2.63c.62-.27,1.21-.63,1.74-1.05l.94-.74c.91-.72,1.65-1.62,2.18-2.65l1.49-2.91c.52-1.02.81-2.15.84-3.29h0c.06-2.2-.83-4.33-2.45-5.83l-1.55-1.44-4.35-3.68-3.33-3.01c-1.82-1.65-3.29-3.63-4.34-5.85l-1.98-4.18c-.43-.9-.78-1.83-1.06-2.78l-4.35-14.97-3.97-17.66-4.06-14.35-2.13-5.91-.82-5.52c-.1-.65-.03-1.31.19-1.93l.57-1.61c.54-1.51,1.92-2.56,3.52-2.66h0c.93-.06,1.86.2,2.62.75l2.04,1.47c1.49,1.08,2.71,2.5,3.54,4.14l2.72,5.36,8.8,17.91,8.73,15.62,9.39,19.58,2.91,6c.31.63.52,1.31.64,2h0c.31,1.8-.05,3.64-1,5.2l-.52.84-2.23,3.67c-.29.47-.55.95-.79,1.45l-.74,1.49c-.79,1.6-1.34,3.3-1.65,5.05h0c-.29,1.69-.35,3.41-.18,5.12l.22,2.13c.08.77.27,1.53.56,2.26h0c.72,1.79,2.03,3.28,3.72,4.21l.66.36c.57.31,1.18.56,1.81.73l2.27.62c2.98.82,6.05,1.26,9.13,1.3l4.91.07c.66,0,1.32,0,1.98-.04l7.12-.39c1.81-.1,3.61-.37,5.36-.82l7.35-1.86,5.95-1.7c2.23-.64,4.26-1.86,5.86-3.53l1.26-1.32c.92-.96,1.69-2.06,2.28-3.25l1.53-3.09.91-3.76c.25-1.02.3-2.08.16-3.12l-.25-1.84c-.31-2.3-1.56-4.36-3.44-5.71h0c-.85-.61-1.81-1.06-2.83-1.32l-5.16-1.32-6.76-2.53c-.86-.32-1.69-.72-2.49-1.18l-2.49-1.45c-1.21-.7-2.33-1.56-3.32-2.55l-4.68-4.65-5.35-6.32c-2.6-3.07-4.87-6.4-6.77-9.94l-8.15-15.19-8.75-14.86-10.01-15.4-6.04-7.03-4.11-2.9c-.75-.53-1.42-1.16-1.99-1.88l-.42-.54c-1.72-2.19-2.41-5.02-1.87-7.75l.37-1.88c.41-2.08,1.33-4.03,2.68-5.67l3.07-3.72,11.82-18.5,13.89-19.71,10.07-14.86,2.15-3.17c.77-1.13,1.39-2.36,1.84-3.65l1.16-3.3c.42-1.21.7-2.46.82-3.73l.35-3.67c.11-1.16-.03-2.34-.43-3.44h0c-.68-1.9-2.05-3.46-3.84-4.39l-.97-.5c-.75-.39-1.56-.65-2.39-.78l-7.73-1.23c-.76-.12-1.52-.16-2.29-.11l-14.39.84-14.48,1.86-11.56,1.85-7.44,2.47-2.87,2.72-1.65,4.53.96,6.77,2.24,6.67,1.74,6.28,1.93,8.44-.12,9.15-1,8.87-1.83,6.44-3.88,2.44-4.64-2.41-2.87-6.56-2.44-8.46-1.42-8.43.12-9.15.74-8.5.57-6.85-.25-4.85c-.06-1.09-.27-2.16-.63-3.19l-.67-1.89c-.37-1.04-.88-2.02-1.54-2.91l-.71-.97c-1.37-1.87-3.29-3.28-5.48-4.02h0Z"/>
  </g>
  <g id="h" data-name="Layer 7">
    <path class="n" d="M435.13,305.64c-1.55-.51-3.15-.89-4.76-1.14l-6.11-.94-10.53-1.18-11.37-.31-8.57-.23c-.77-.02-1.54,0-2.3.07l-3.47.31c-2.64.23-5.24.82-7.72,1.76l-3.3,1.25c-.75.28-1.45.66-2.1,1.12h0c-1.66,1.19-2.86,2.91-3.42,4.87l-.72,2.53c-.25.87-.55,1.73-.9,2.56l-5.52,13.1-4.39,9.25c-1.04,2.19-2.27,4.27-3.68,6.24l-7.99,11.12-8.85,9.99-4.85,4.92c-1.62,1.64-2.95,3.53-3.96,5.59l-1.38,2.84c-.97,1.99-1.63,4.11-1.97,6.3h0c-.46,3.02-.28,6.11.52,9.06l.3,1.12c.58,2.13,1.48,4.16,2.67,6.02l5.17,8.1,11.85,19.29,8.11,14c1,1.72,2.17,3.34,3.51,4.81l6.21,6.87c1.24,1.38,2.62,2.63,4.11,3.74l9.33,7.75,11.45,8.09c1.24.98,2.61,1.8,4.06,2.43l12.32,5.38,7.97,2.68c2.85.96,5.82,1.49,8.82,1.57h.45c4.11.12,8.2-.6,12.02-2.13l1.68-.67c2.22-.89,4.25-2.21,5.96-3.89l.57-.56c1.05-1.03,1.97-2.18,2.74-3.44l3.74-6.08c.99-1.61,1.76-3.33,2.3-5.14l.38-1.27c.54-1.81.84-3.68.89-5.56l.12-4.58.18-6.78c.06-2.28.43-4.55,1.1-6.73l2.52-8.22c.42-1.38.98-2.71,1.65-3.98l1.93-3.62,4.42-6.33c.14-.21.28-.42.41-.64l2.23-3.77c.68-1.15,1.13-2.43,1.31-3.76l.15-1.09c.26-1.93-.08-3.9-.97-5.64l-.07-.13c-.7-1.35-1.71-2.52-2.96-3.4l-1.99-1.41c-1.28-.9-2.73-1.53-4.27-1.84l-3.49-.71c-2.99-.61-6.07-.72-9.1-.33l-7.18.91-11.61,2.32-5.88,2.11c-.62.22-1.18.6-1.63,1.08l-1.1,1.2c-.39.42-.69.92-.87,1.46h0c-.39,1.14-.26,2.39.35,3.42l.62,1.05,2.64,3.04c.59.68,1.12,1.4,1.58,2.17h0c1.62,2.67,2.65,5.65,3.03,8.75l.03.27c.13,1.09.02,2.19-.33,3.23l-1.1,3.27c-.23.69-.56,1.34-.99,1.93l-1.06,1.49c-2.33,3.26-5.76,5.58-9.66,6.51h0c-2.14.51-4.37.59-6.54.24l-1.04-.17c-3.56-.58-7.05-1.53-10.41-2.82l-1.26-.49c-2.85-1.09-5.54-2.55-8.02-4.32l-6.11-4.37c-2.06-1.47-3.96-3.16-5.67-5.03l-3.08-3.37c-1.68-1.84-3.16-3.86-4.43-6.01l-1.26-2.14c-1.56-2.65-2.57-5.58-2.98-8.62l-.36-2.63c-.17-1.24-.24-2.49-.2-3.75h0c.09-3.32.89-6.59,2.36-9.57l.4-.81c.12-.24.25-.47.39-.7l.9-1.39c.97-1.49,2.49-2.53,4.23-2.9h0c1.83-.38,3.74.02,5.26,1.12l1.08.78c.39.28.8.51,1.23.7l6.17,2.69c1.1.48,2.23.89,3.38,1.22l6.47,1.85c1.73.5,3.51.82,5.3.97l6.35.52,11.38,1.02c1.19.11,2.39.11,3.58.01l3.47-.28c1.56-.13,3.1-.43,4.6-.9l3.42-1.08c2.63-.83,5.06-2.18,7.15-3.98l.45-.39c1.3-1.12,2.46-2.4,3.43-3.81l3.1-4.47c1.06-1.53,1.91-3.21,2.52-4.97l3.24-9.43c.45-1.31.82-2.65,1.09-4l1.43-6.94c.16-.8.3-1.59.42-2.4l.76-5.12c.45-3,.58-6.05.41-9.08l-.19-3.2-1.03-5.21c-.47-2.37-1.34-4.64-2.58-6.72l-.64-1.08c-1.05-1.77-2.36-3.37-3.88-4.76l-.62-.57c-1.28-1.17-2.66-2.23-4.12-3.16l-.29-.19c-2.12-1.35-4.39-2.43-6.77-3.21l-1.76-.58Z"/>
    <path class="o" d="M391.06,347.68l.49-1.38,3.2-7.1c.56-1.23,1.28-2.38,2.15-3.41l1.04-1.23c2.27-2.67,5.43-4.43,8.89-4.95l2.7-.4c.85-.13,1.71-.18,2.57-.16l5.81.16c2.14.06,4.23.71,6.01,1.9l2.11,1.39c1.61,1.06,2.92,2.51,3.82,4.21l.68,1.28c.93,1.75,1.48,3.67,1.63,5.65l.16,2.12c.07.89.05,1.78-.05,2.66l-.27,2.45c-.29,2.66-1.5,5.13-3.41,7.01h0c-1.18,1.16-2.6,2.05-4.15,2.62l-2.73.99c-1.37.5-2.83.74-4.29.7l-6.03-.16-6.75-.18c-1.55-.04-3.08-.25-4.58-.62l-7.57-1.86-3.78-1.09c-.42-.12-.8-.35-1.1-.67l-.73-.77c-.73-.77-.88-1.91-.38-2.84h0c.14-.26.32-.49.54-.69l.44-.39c1.61-1.41,2.83-3.21,3.55-5.23Z"/>
  </g>
  <g id="i" data-name="Layer 8">
    <path class="n" d="M489.67,309.33l-1.62.38c-1.07.25-2.18.36-3.28.33l-2.94-.08c-.37,0-.73-.04-1.1-.08l-7.66-.86c-1.23-.14-2.47-.23-3.7-.26l-1.54-.04c-1.71-.05-3.42.07-5.1.34h0c-1.27.21-2.38.98-3.01,2.1h0c-.72,1.29-.72,2.86,0,4.15h0c.79,1.4,1.44,2.88,1.95,4.4l2.1,6.35c.25.74.46,1.5.64,2.26l1.1,4.64c.2.84.35,1.68.47,2.53l.98,7.25c.14,1.06.24,2.13.29,3.2l.26,5.78c.04.84.04,1.69.02,2.53l-.16,5.8c-.03,1.18,0,2.36.08,3.54l.07.96c.17,2.3.56,4.58,1.17,6.8l.96,3.5,4.11,11.63,4.06,12.35c.52,1.59.87,3.23,1.03,4.9h0c.37,3.77-.21,7.58-1.69,11.07l-.32.75c-.92,2.18-2.13,4.23-3.58,6.1l-1.95,2.51c-.79,1.02-1.51,2.08-2.17,3.19l-.48.82c-1.32,2.25-2.34,4.66-3.03,7.18l-1.73,6.31c-.43,1.57-.75,3.18-.96,4.79l-1.78,13.97-1.34,5.87c-.35,1.53-.84,3.03-1.46,4.48l-1.02,2.37c-.74,1.71-1.66,3.34-2.75,4.85l-5.63,7.82-6.65,9.9-2.64,4.41c-.82,1.37-1.41,2.87-1.74,4.43h0c-.44,2.08-.43,4.24.06,6.31l.02.07c.24,1.03.59,2.02,1.05,2.97l.03.06c1.31,2.71,3.34,5.02,5.86,6.67h0c.26.17.55.3.86.36l3.94.86c2.78.61,5.63.8,8.47.58l4.61-.36c.54-.04,1.08-.07,1.62-.08l12.98-.23,15.22.41,15.11.8c.61.03,1.23.04,1.84.03l11.93-.2c.77-.01,1.53-.07,2.29-.18l4.86-.67c1.78-.25,3.51-.75,5.15-1.48l1.46-.65c1.13-.51,2.18-1.16,3.12-1.96l1.34-1.13c.68-.57,1.3-1.21,1.86-1.91l.63-.8c1.56-1.97,2.64-4.26,3.17-6.71l.37-1.69c.16-.75.25-1.51.27-2.28l.09-3.37c.03-1.23.24-2.45.62-3.62l.2-.61c.39-1.2.94-2.33,1.66-3.36h0c.98-1.42,1.52-3.09,1.57-4.82h0c.03-1.24-.24-2.46-.79-3.57l-.4-.8c-.35-.7-.77-1.36-1.25-1.97l-.83-1.04c-1.05-1.32-2.5-2.27-4.14-2.71l-.85-.23c-1.14-.31-2.34-.35-3.51-.14l-1.46.27c-1.7.32-3.39.75-5.03,1.3l-4.77,1.58c-1.67.55-3.4.9-5.15,1.02l-5.61.41-3.7-.02c-3.69-.02-7.37.39-10.97,1.23l-4.11.95-4.47,1.15c-.63.16-1.21-.38-1.11-1.02l1.11-2.89c.45-1.1.77-1.31,1.18-2.24l.99-1.73c.4-.56.71-1.09,1.07-1.65l1.15-2.18c.92-1.51,1.1-2,1.41-2.62l1.56-3.69c.8-1.63,1.04-2.36,1.89-4.17l1.19-2.95c.35-1.09.86-2.05,1.21-3.04l5.19-14.58c.49-1.38.82-2.81.99-4.26l.83-7.25,2.36-18.87.88-17.26,1.02-13.11c.37-4.8.28-9.63-.28-14.42l-.51-4.35c-.1-.84-.22-1.67-.37-2.5l-1.63-9.32c-.19-1.09-.42-2.17-.69-3.24l-3.31-13.11-3.75-12.18c-.4-1.28-.91-2.53-1.54-3.72l-.61-1.15c-1.17-2.2-2.72-4.18-4.58-5.85l-.13-.12c-.72-.64-1.52-1.17-2.4-1.57h0c-2.04-.94-4.34-1.17-6.53-.66Z"/>
  </g>
  <g id="j" data-name="Layer 9">
    <path class="n" d="M579.52,357.84c.15.75.22,1.52.2,2.29l-.14,5.01-.09,3.5-.07,2.64c-.03,1.1.22,2.19.73,3.17l.33.63c.53,1.01,1.56,1.66,2.7,1.69l3.35.09c.1,0,.19,0,.29,0l9.92-.64c3.72-.24,7.4-.94,10.94-2.09l5.24-1.69,4.95-1.36c1.24-.34,2.37-.99,3.28-1.9l1.19-1.18c1.05-1.04,1.1-2.71.13-3.82l-1.05-1.19-2.59-2.48c-1.21-1.16-2.21-2.52-2.96-4.01l-4.48-8.93c-.16-.32-.34-.64-.52-.95l-3.95-6.63c-.16-.27-.32-.55-.46-.84l-2.75-5.36c-.59-1.16-1.28-2.27-2.06-3.31l-.19-.26c-2.69-3.62-6.25-6.5-10.35-8.38l-2.51-1.15c-1.48-.68-3.01-1.22-4.59-1.62l-1.08-.27c-4.37-1.11-8.84-1.72-13.35-1.85l-5.9-.16c-2.1-.06-4.2,0-6.3.15l-3.9.3c-3.25.25-6.42,1.12-9.34,2.56l-.28.14c-3.89,1.93-7.22,4.82-9.68,8.4l-.31.45c-1.71,2.5-3.03,5.26-3.89,8.17l-.09.29c-.73,2.45-1.13,4.98-1.2,7.53l-.13,4.79-.25,9.3c-.07,2.57.07,5.14.43,7.68l.54,3.91c.2,1.45.51,2.89.91,4.3l.82,2.88c.55,1.92,1.28,3.78,2.18,5.56l1.08,2.13c.84,1.66,1.92,3.19,3.2,4.54h0c1.37,1.45,2.96,2.68,4.71,3.64l3.65,2.01,9.33,4.99,12.4,5.69.37.22c5.5,3.27,10.28,7.62,14.05,12.78l3.42,4.68c1.97,2.71,3.66,5.61,5.02,8.68l2.03,4.56,2.1,4.62c1.3,2.87,2.04,5.96,2.15,9.11l.06,1.62-.24,3.96c-.09,1.56-.69,3.05-1.7,4.25h0c-1.19,1.41-2.84,2.35-4.66,2.64h0c-1.66.27-3.36,0-4.85-.78l-4.82-2.52c-1.34-.7-2.59-1.55-3.74-2.53l-5.48-4.69c-.82-.7-1.59-1.47-2.29-2.3l-3.71-4.4c-1.21-1.43-2.25-2.99-3.12-4.65l-1.49-2.86c-.74-1.43-1.27-2.96-1.57-4.55l-.47-2.51c-.11-.59-.25-1.18-.43-1.75l-.61-2c-.8-2.63-2.12-5.07-3.87-7.18h0c-1.14-1.36-2.51-2.51-4.06-3.38h0c-2.06-1.15-4.36-1.79-6.72-1.85l-2.13-.06c-1.53-.04-3.06.05-4.58.28l-4.89.74c-.73.11-1.46.25-2.18.43l-3.04.73c-2.31.56-4.42,1.77-6.07,3.48h0c-1.26,1.31-2.22,2.88-2.82,4.6l-1.08,3.13c-.46,1.33-.71,2.72-.75,4.13h0c-.08,3.09.31,6.17,1.16,9.14l.43,1.5c.48,1.68,1.09,3.32,1.81,4.92l.92,2.03c.86,1.9,2.06,3.62,3.54,5.09l3.02,3c.9.89,1.89,1.68,2.96,2.35l6.28,3.94,11.53,6.8c1.09.64,2.14,1.35,3.14,2.12l4.24,3.25c1.54,1.18,2.97,2.5,4.26,3.95l4.84,5.42,2.97,3.35c1.86,2.1,4.16,3.75,6.74,4.84h0c2.92,1.23,6.04,1.91,9.21,1.99l2.9.08c1.58.04,3.17-.06,4.73-.31l6.96-1.12c1.09-.18,2.16-.45,3.2-.83l6.43-2.32c1.73-.63,3.4-1.41,4.99-2.34l3.37-1.98c1.73-1.02,3.3-2.28,4.67-3.75l3.98-4.27c1.33-1.43,2.45-3.03,3.34-4.77l1.12-2.2c1.11-2.19,1.93-4.51,2.44-6.91l.35-1.64c.36-1.67.56-3.37.6-5.08l.19-7.09.15-5.42c.1-3.77-.38-7.52-1.43-11.14l-1.43-4.91-3.16-8.64c-.83-2.27-1.89-4.45-3.15-6.51l-1.82-2.96c-1.46-2.37-3.18-4.57-5.15-6.55l-1.25-1.26c-3.07-3.09-6.39-5.93-9.92-8.49l-2.97-2.15-3.2-2.09c-4.86-3.17-10.05-5.81-15.48-7.87l-4.87-1.84c-.68-.26-1.34-.57-1.97-.92l-6.35-3.59c-1.73-.98-3.22-2.35-4.34-4l-2.73-4.02c-1.12-1.64-1.84-3.51-2.11-5.48l-.62-4.43c-.12-.84-.13-1.69-.04-2.53l.28-2.59c.27-2.54,1.46-4.89,3.35-6.6l.24-.21c1.22-1.11,2.8-1.72,4.45-1.73h1.72c1.24-.02,2.45.32,3.51.96l.24.15c1.56.95,2.83,2.32,3.65,3.94l.67,1.33c.4.79.69,1.63.87,2.49l.6,2.94Z"/>
  </g>
  <g id="k" data-name="Layer 10">
    <path class="n" d="M684.8,347.33l2.46-1.75c.97-.69,1.81-1.54,2.47-2.53h0c1.25-1.85,1.94-4.01,2-6.24h0c.05-1.69-.34-3.37-1.13-4.86l-1.76-3.37c-.43-.81-.64-1.72-.61-2.64l.03-1.01c.03-1.17-.72-2.23-1.84-2.59h0c-.5-.16-1.04-.17-1.55-.02l-4.31,1.27-5.52.77c-.71.1-1.41.17-2.12.22l-14.94,1-12.31.89-10.51.12-9.72.69-3.12.07c-1.55.04-3.07.4-4.47,1.06h0c-.92.44-1.73,1.1-2.33,1.93h0c-.74,1.01-1.15,2.22-1.19,3.47h0c-.04,1.62.18,3.23.67,4.78l.68,2.17c.27.86.58,1.7.92,2.53l1.92,4.66c.39.94.82,1.86,1.3,2.76l2.27,4.28c.26.49.5,1,.72,1.51l1.51,3.54c.66,1.54,1.07,3.17,1.24,4.83h0c.19,1.86-.04,3.74-.67,5.5l-.27.75c-1.04,2.92-1.54,6-1.47,9.1l.14,6.32c.04,1.77.27,3.53.67,5.25l2.38,10.07c.45,1.91,1.07,3.78,1.84,5.58l3.35,7.87c.76,1.78,1.36,3.63,1.8,5.52l2.08,9.01c.29,1.26.52,2.53.68,3.81l.95,7.5c.26,2.03.35,4.07.28,6.11l-.41,11.89c-.06,1.85-.3,3.68-.71,5.48l-1.56,6.93-1.66,5.83c-.2.72-.45,1.42-.75,2.1l-2.09,4.89c-.54,1.27-1.2,2.49-1.96,3.65l-3.53,5.38c-.87,1.33-1.63,2.74-2.26,4.2l-2.58,5.97c-.37.85-.67,1.73-.9,2.62l-.9,3.53c-.18.72-.22,1.47-.12,2.21h0c.19,1.31.84,2.52,1.84,3.4l.47.42c.86.76,1.93,1.25,3.08,1.38l4.79.57c.62.07,1.24.17,1.86.29l5.27,1.01c1.39.27,2.81.42,4.23.46l5.22.14c1.46.04,2.92-.04,4.37-.25l9.2-1.3,12.49-1.18c2.88-.27,5.73-.9,8.46-1.86l3.47-1.22,3.98-1.31c.92-.3,1.78-.77,2.54-1.37l2.05-1.62c.65-.51,1.23-1.11,1.72-1.78l.11-.15c1.11-1.51,1.73-3.32,1.78-5.19h0c0-.27,0-.54-.01-.8l-.45-7.39-1.13-8.5-.47-5.61c-.03-.37-.11-.72-.24-1.07l-.31-.82c-.41-1.08-1.26-1.92-2.35-2.32h0c-.99-.36-2.07-.31-3.02.13l-.38.18c-.78.36-1.5.84-2.13,1.42l-2.9,2.67c-.7.64-1.46,1.21-2.28,1.69l-2.68,1.58c-.35.21-.69.43-1.02.67l-4.69,3.37c-1.18.85-2.47,1.54-3.82,2.07l-3.74,1.44c-.56.22-1.13.4-1.71.56l-4.37,1.17c-.8.21-1.64.16-2.4-.14h0c-1.31-.52-2.23-1.73-2.38-3.13h0c-.23-2.11-.08-4.25.45-6.31l1.49-5.83,2.02-9.09,1.63-9.65.67-3.73c.3-1.68.49-3.37.56-5.07l.26-5.9.2-4.16c.07-1.5.03-3-.12-4.49l-.2-1.9c-.07-.71-.12-1.42-.14-2.13l-.13-4.03c-.04-1.21.35-2.39,1.09-3.35h0c.27-.35.59-.66.94-.93l2.29-1.76c.35-.27.69-.56,1.01-.87l2.1-2.03c.53-.51,1-1.07,1.43-1.66l.3-.43c1.06-1.5,1.68-3.26,1.79-5.09h0c.05-.85,0-1.71-.18-2.55l-.23-1.16c-.15-.76-.4-1.51-.73-2.21h0c-.66-1.41-1.97-2.41-3.51-2.67l-1.35-.23-4.36-.39-1.58-.23c-1.22-.17-2.26-.96-2.77-2.07l-1.05-2.33c-.3-.66-.56-1.34-.77-2.03l-1.69-5.43-1.9-6.02c-.33-1.04-.57-2.1-.73-3.17l-.8-5.47c-.15-1.03-.25-2.07-.3-3.11l-.36-7.6v-4.92s.07-2.66.07-2.66c.06-2.04.28-4.07.67-6.08h0c.24-1.21.89-2.3,1.86-3.08l.88-.71c.9-.73,2.02-1.14,3.18-1.16l3.95-.08,8.46.37,7.63.48,3.55.18c.91,0,2.03.13,3.15.45h0c.62.27,1.07.44,1.64.54h0c.74.13,1.51-.05,2.12-.48Z"/>
  </g>
  <g id="l" data-name="Layer 11">
    <path class="n" d="M665.01,474.45l.65-2.58c.35-1.4.55-2.83.59-4.28l.12-4.46.23-8.66c.04-1.54.18-3.08.41-4.6l.69-4.5c.34-2.25.89-4.47,1.64-6.62l2.75-7.9,3.58-9.71,3.3-9.26c.56-1.58.95-3.21,1.17-4.87l1.15-8.97c.1-.78.16-1.56.18-2.34l.23-8.52c.02-.85.08-1.7.17-2.54l1.01-9.43c.15-1.35.38-2.69.69-4.01l1.63-6.81c.13-.56.29-1.12.46-1.67l1.38-4.37c.4-1.26.9-2.48,1.49-3.66l1.27-2.51,2.22-5.72c.35-.9.6-1.84.75-2.79l1.32-8.48.13-4.79c.04-1.36.52-2.67,1.38-3.72h0c.86-1.05,2.03-1.79,3.35-2.11l7.99-1.9,6.55-1.22c1.96-.36,3.96-.52,5.95-.47l1.36.04c1.33.04,2.64.36,3.83.96h0c1.61.81,2.95,2.07,3.84,3.64h0c1.18,2.06,1.76,4.4,1.7,6.77l-.19,6.84-.33,11.99-.5,18.26c-.05,1.94-.25,3.87-.6,5.78l-2.1,11.57c-.25,1.38-.41,2.77-.48,4.18l-1.57,31.46-.98,11.62c-.1,1.14-.07,2.3.08,3.44l.24,1.81c.11.86.55,1.65,1.23,2.2h0c1.27,1.03,3.1,1.02,4.35-.04h0c1.81-1.53,2.99-3.67,3.32-6.02l.38-2.7c.24-1.7.39-3.42.43-5.14l.25-9.33c.02-.91.02-1.81,0-2.72l-.51-15.68-.95-17.37c-.05-.92-.07-1.85-.07-2.78l.06-9.08c.01-1.53.1-3.06.27-4.58l1.31-11.99c.09-.84.22-1.68.37-2.51l2.6-13.7c.29-1.55.7-3.08,1.22-4.57l1.49-4.3c.85-2.45,2.66-4.44,5.01-5.52l1.38-.64c1.61-.74,3.33-1.22,5.1-1.43l5.91-.68c1.1-.13,2.21,0,3.25.38h0c1.74.64,3.17,1.93,3.98,3.6h0c.92,1.91,1.37,4.02,1.31,6.14l-.08,2.96c-.06,2.16-.44,4.3-1.12,6.35l-2.24,6.71c-.41,1.23-.74,2.48-.99,3.75l-4.2,21.55c-.12.62-.22,1.24-.3,1.86l-2.96,22.83c-.1.78-.17,1.56-.21,2.35l-1.55,30.82c-.04.77-.05,1.54-.03,2.31l.32,11.83c.11,3.95.44,7.88.99,11.79l1.53,10.79,1.34,8.98c.69,4.6,1.07,9.24,1.14,13.9l.08,5.27-.16,5.79c-.05,1.92-.36,3.82-.91,5.66h0c-.74,2.48-2.25,4.66-4.3,6.24l-.67.52c-1.09.83-2.29,1.51-3.56,2.02l-7.98,3.17c-.62.25-1.26.46-1.91.63l-9.48,2.47c-1.08.28-2.2.41-3.31.38l-7.76-.21-4.89-.13c-2.46-.07-4.84-.9-6.8-2.37l-.45-.33c-1.33-1-2.35-2.36-2.93-3.91l-1.19-3.18c-.67-1.79-1.07-3.66-1.2-5.56l-.52-7.95c-.13-1.99-.17-3.99-.11-5.98l.26-9.76.29-10.83c.05-1.8.02-3.6-.08-5.39l-.59-10.51c-.08-1.43-.11-2.86-.09-4.29l.18-14.7.23-16.56c.03-1.89.14-3.78.33-5.67l1.09-10.41,1.75-12.21c.1-.68.22-1.35.36-2.02l1.45-6.83c.26-1.21.44-2.43.55-3.66l.51-5.76c.05-.53,0-1.06-.13-1.57l-.44-1.66c-.25-.93-1.35-1.31-2.12-.73h0c-.65.49-1.12,1.19-1.34,1.98l-.75,2.7c-.4,1.45-.68,2.92-.84,4.41l-1.88,18.4c-.07.67-.16,1.33-.28,1.99l-4.21,23.86c-.22,1.22-.38,2.45-.49,3.69l-1.12,12.37c-.11,1.21-.17,2.43-.18,3.64l-.09,11.45.42,7.46c.06,1.15.33,2.29.79,3.35l.23.53c.48,1.11.47,2.37-.02,3.48h0c-.38.84-1.01,1.54-1.81,1.99l-3.18,1.8c-.51.29-1.04.55-1.57.78l-6.27,2.74c-.79.34-1.61.61-2.46.79l-4.36.92c-.53.11-1.07.19-1.6.23l-3.21.23c-.71.05-1.42-.14-2.01-.54h0c-1.11-.75-1.63-2.11-1.3-3.41Z"/>
  </g>
</svg>