<?xml version="1.0" encoding="utf-8"?>
<!-- Generator: Adobe Illustrator 28.1.0, SVG Export Plug-In . SVG Version: 6.00 Build 0)  -->
<svg version="1.1" id="Layer_1" xmlns="http://www.w3.org/2000/svg" xmlns:xlink="http://www.w3.org/1999/xlink" x="0px" y="0px"
	 viewBox="0 0 792 546" style="enable-background:new 0 0 792 546;" xml:space="preserve">
<style type="text/css">
	.st0{fill:#89A8E1;}
	.st1{fill:#383838;}
</style>
<g id="Layer_2">
	<path class="st0" d="M33.7,28.6l1.7-1.6c1.4-1.4,3.1-2.5,4.9-3.4l1.1-0.5c3.1-1.5,6.4-2.2,9.8-2.1l8.3,0.2l10.2,0.5
		c0.5,0,1,0,1.5,0l12.4-0.3c0.7,0,1.4-0.1,2.1-0.2l17.1-2.3l9.8-2.2l12-4.5c1.3-0.5,2.6-0.8,4-1l3.2-0.4c1.6-0.2,3.3-0.2,4.9,0
		l3.3,0.4c0.8,0.1,1.6,0.5,2.3,1l0,0c1.1,1,1.6,2.5,1.3,4l-0.1,0.5c-0.1,0.7-0.5,1.4-0.9,1.9l-1.2,1.4c-0.8,1-1.5,2.2-1.9,3.4
		l-0.5,1.6c-0.5,1.5-0.7,3.1-0.6,4.7l0.2,4.6c0,0.9,0.2,1.9,0.4,2.8l1.1,4.6c0.6,2.4,1.4,4.8,2.5,7l4.3,9l4.9,11.8
		c0.4,0.9,0.7,1.8,1,2.7l1.5,4.7c0.7,2.1,1.6,4.2,2.6,6.1l4.3,7.7c0.4,0.8,0.9,1.5,1.5,2.2l0.5,0.6c1.8,2,4.6,2.8,7.2,2l0,0
		c1.6-0.5,2.9-1.6,3.7-3l2.1-3.6c0.9-1.6,1.6-3.3,2.2-5l3.2-10.4l3.3-11.5l3.2-10.9l1.9-4.8c1-2.5,2.2-4.9,3.8-7l3-4.3
		c0.5-0.7,1.1-1.5,1.7-2.1l6.3-7.2c2.1-2.4,4.5-4.4,7.1-6.1l0.3-0.2c3.8-2.4,8.1-4.1,12.5-4.9l5.4-1l11.8-1.3l4.8-0.4
		c4.1-0.4,8.3,0.1,12.2,1.4l3,1c1.6,0.5,3.1,1.3,4.5,2.2l3.6,2.4c2.2,1.5,4,3.4,5.2,5.7v0c0.9,1.7,1.5,3.5,1.7,5.4l0.1,0.5
		c0.3,1.9,0.2,3.8-0.1,5.7l-0.2,1c-0.6,3.3-1.8,6.5-3.5,9.4l-1.1,1.8c-0.5,0.8-1.1,1.6-1.7,2.4l-5.7,6.9c-0.5,0.6-1.1,1.3-1.7,1.9
		l-3.3,3.3c-2.2,2.1-3.8,4.8-4.7,7.7l-1.3,4.3c-0.3,1.1-0.6,2.2-0.8,3.4L250.9,91c-0.5,2.8-0.7,5.6-0.7,8.4l0.2,16.7
		c0,2.3,0.2,4.7,0.6,7l1.7,10.4c0.3,1.9,0.5,3.8,0.6,5.8l0.6,12c0.1,2.6,0.5,5.3,1,7.9l3.3,15.7l2.8,12.4l4.2,19.6l1.2,5.9
		c0.9,4.8,2.8,9.4,5.4,13.5l0.4,0.7l7,7.2c0.5,0.5,1,1.1,1.4,1.6l1.9,2.5c1.9,2.4,3.1,5.3,3.6,8.3l0,0c0.2,1.3,0.3,2.7,0.2,4.1
		l-0.1,1.7c-0.3,4.5-1.9,8.8-4.8,12.3l0,0c-1.2,1.5-2.7,2.8-4.2,3.9l-1.4,0.9c-2.6,1.8-5.5,3.2-8.5,4.1l-5.6,1.7
		c-2.3,0.7-4.6,1.1-7,1.3l-12.3,0.9l-13.6,1.2c-2.6,0.2-5.2,0.2-7.8,0l-10.1-1c-1.7-0.2-3.5-0.4-5.2-0.8l-6.1-1.4
		c-2-0.4-3.9-1.3-5.5-2.4h0c-2.5-1.7-4.4-4.1-5.5-6.9l0,0c-0.6-1.5-0.9-3.2-0.9-4.9l0.1-3.8c0.1-3.7,1.1-7.3,2.9-10.5l0.8-1.4
		c0.6-1.1,1.3-2.1,2.1-3l5.2-6.3c1.2-1.4,2.4-2.7,3.8-4l7.1-6.6l5.5-5.5c1.7-1.7,3.1-3.5,4.4-5.5l1-1.6c1.3-2,2.4-4.2,3.2-6.5
		l1.3-3.6c0.6-1.6,1-3.2,1.2-4.8l1.3-7.7l0.4-6.4c0.2-2.6,0.5-5.2,0.9-7.8l2.3-13.2l2.1-12.8c0.2-1.1,0.3-2.2,0.3-3.3l0.2-16.5
		l0.2-10.5l-0.1-5c0-1.5-0.6-2.9-1.5-4l-0.8-0.9c-1.1-1.3-2.7-2.2-4.4-2.4h0c-1.5-0.2-3,0-4.4,0.7l-0.3,0.2c-1.6,0.8-3,1.8-4.2,3.1
		v0c-1.1,1.2-2.1,2.6-2.7,4.1l-3.2,7.4c-0.6,1.3-1.1,2.7-1.5,4.1l-2.9,9l-4.3,17.4l-5,20.6l-4.3,15.1c-0.3,1.1-0.7,2.1-1.1,3.1
		L192,196c-1.2,2.7-2.8,5.1-4.9,7.1h0c-1.6,1.5-3.4,2.8-5.3,3.8l-0.3,0.1c-1.7,0.9-3.6,1.4-5.6,1.6l-1.2,0.1c-1.4,0.1-2.7,0-4-0.3
		l-1.4-0.3c-1.6-0.3-3.1-1-4.4-1.8l-1.3-0.8c-2.6-1.6-4.8-3.7-6.4-6.2l-1.9-2.9c-0.3-0.4-0.6-0.9-0.8-1.3l-4.9-8.7
		c-1.8-3.3-3.4-6.8-4.7-10.4l-3.8-10.8l-6.8-18.1l-8-19.6l-3.5-8.8c-0.2-0.6-0.5-1.2-0.9-1.8l-3.3-5.4c-0.5-0.8-1-1.5-1.6-2.2
		l-2.6-3c-0.6-0.7-1.3-1.2-2.1-1.4h0c-1.6-0.5-3.3-0.1-4.5,0.9l-0.3,0.3c-0.6,0.6-1.1,1.3-1.4,2.1l-1.7,5.3
		c-1.1,3.4-1.9,6.8-2.4,10.3l-0.3,2.3c-0.3,2.1-0.5,4.2-0.5,6.3l-0.2,7.6l0.2,12.2l0.4,10.7c0.1,2.9,0.4,5.9,0.8,8.8l1.3,8.8
		l1.9,11.6l1.2,7.9c0.5,3.1,1.4,6.2,2.6,9.1l0,0c1,2.4,2.3,4.8,3.9,7l3.2,4.5l4.4,5.3c1.1,1.3,2.2,2.5,3.4,3.6l4.1,3.9
		c0.8,0.7,1.5,1.5,2.2,2.3l2.9,3.5c1.2,1.5,2.2,3.1,3.1,4.8l0.9,1.8c1,2,1.5,4.1,1.5,6.3v0c0,2.3-0.5,4.7-1.5,6.8l-0.6,1.3
		c-1.2,2.5-2.9,4.7-5,6.6l0,0c-2,1.8-4.2,3.2-6.7,4.2l-3.1,1.2c-1.8,0.7-3.6,1.2-5.5,1.6l-3.9,0.7c-2.8,0.5-5.8,0.5-8.6,0.1l-9-1.3
		l-16.3-1.7l-14-1.5l-12.3-1c-1.9-0.2-3.8-0.5-5.7-1.1l-3.7-1.1c-1.8-0.5-3.6-1.2-5.2-2.1l-4.6-2.4c-1.5-0.8-2.8-1.7-4-2.9h0
		c-2.2-2.1-3.9-4.7-4.9-7.7h0c-0.9-2.8-1.3-5.7-1.2-8.7l0.2-3.2c0.1-1.7,0.3-3.4,0.5-5.1l0.7-4.5l2.1-10.2l3.4-11.5
		c0.5-1.6,0.8-3.3,1.1-4.9l2.3-14.7l1.9-19.3l1.4-14.3c0.2-2.2,0.2-4.5,0-6.7l-1.2-13.7c-0.1-1.4-0.3-2.8-0.6-4.2l-3.9-18.9
		l-3.3-22.3c-0.1-1-0.3-1.9-0.5-2.9l-3.3-14.6c-0.7-2.9-1-5.9-1-8.9V58c0-2.6,0.3-5.1,0.8-7.7l1-4.8c0.5-2.4,1.4-4.7,2.5-6.9
		l2.9-5.4C31,31.5,32.3,30,33.7,28.6z"/>
</g>
<g id="b">
	<path class="st0" d="M296.6,44.8l2.9-4.4c0.3-0.4,0.5-0.8,0.7-1.3l3.9-8.8l2.2-4.7c0.3-0.7,0.7-1.3,1.2-1.9l0,0
		c1.4-1.7,3.3-2.8,5.4-3.1l2.4-0.4c0.6-0.1,1.1-0.1,1.7-0.1l17.7,0.4l19.4-0.8l22.1,1.8l18.5,3.9l9.1,2.4c1,0.2,1.9,0.6,2.7,1.1
		l1.9,1.2c1.8,1.1,3.1,2.7,3.9,4.7l0,0c0.5,1.2,0.7,2.5,0.7,3.8v2.2c0,1.4-0.4,2.8-1,4.1l-2.3,4.6c-0.1,0.3-0.3,0.6-0.5,0.9l-7,11.2
		l-5.5,8.7l-2.7,4.5c-1.9,3.1-3.3,6.5-4.3,9.9v0.1c-1,3.6-1.5,7.3-1.5,11.1l0,0c0,3.4,0.4,6.8,1.3,10.2v0.1c0.8,3.1,2,6.2,3.5,9
		l0.6,1.1c1,1.8,2.1,3.5,3.3,5.2l7.7,10.3l12.7,15.1l11.5,13.8l10.7,14.1l14.4,20.2l7.3,11l11.5,13.1l8.9,9.6
		c0.4,0.5,0.9,0.9,1.4,1.4l5.8,5.5c1.6,1.5,3.3,2.9,5.2,4.1l5.2,3.3c1.1,0.7,2.2,1.5,3.3,2.4l1.1,0.9c3.9,3,7.2,6.8,9.7,11l0,0
		c1.2,2,1.7,4.2,1.7,6.5l0,0c0,1.5-0.3,3-0.9,4.4l-0.1,0.3c-1.2,2.9-3.5,5.2-6.4,6.5l-1.1,0.5c-0.4,0.1-2.4,0.8-3.5,1.1
		c-0.4,0.1-0.9,0.2-1.3,0.3l-6.4,1.4c-0.6,0.1-1.1,0.2-1.7,0.3l-14.3,1.9l-18.6,1.6l-16.1,1.5c-0.6,0.1-1.3,0.1-2,0.1h-5
		c-1.5,0-3.1-0.2-4.6-0.6l-2.5-0.6c-1.4-0.3-2.6-1-3.7-1.8l-3.4-2.6c-0.6-0.5-1.2-1.1-1.7-1.7l-2-2.6c-1.2-1.5-1.9-3.4-2.1-5.3l0,0
		c-0.2-2.5,0.5-5,2-7l0,0c0.9-1.2,2-2.1,3.2-2.9l4-2.5c0.5-0.3,1-0.6,1.6-0.8l6.6-2.8c0.3-0.1,0.6-0.2,1-0.4l0,0
		c3.4-1.1,6-3.7,7.2-7l0,0c0.2-0.5,0.2-1,0.2-1.4l-0.3-4.3c-0.2-2.4-0.8-4.6-2-6.7L439,229l-7.3-7.8c-0.5-0.6-1.1-1.2-1.7-1.7
		l-8.7-7.9L410,200.8l-9.7-9.3c-0.7-0.7-1.4-1.4-2.1-2.1l-4.9-5.4c-2.3-2.5-4.8-4.7-7.5-6.7l-2.7-1.9c-0.6-0.4-1.2-0.8-1.9-1.1
		l-5.4-2.4c-1.2-0.5-2.5-0.9-3.8-1l-3.2-0.2c-2.6-0.2-5.2,0.5-7.4,2.1l0,0c-1.8,1.3-3.2,3.1-4,5.2l-1.4,3.7
		c-0.4,1.2-0.7,2.4-0.7,3.6l-0.1,3.4c0,2.2,0,4.4,0.3,6.5l0.4,3.5c0.2,2.1,0.6,4.1,1.1,6.1l0.9,3.3c0.6,2.2,1.3,4.3,2.3,6.4l0,0
		c1.5,3.2,3.3,6.1,5.5,8.8l0,0c1.8,2.2,3.9,4.3,6.2,6.1l1.2,1c2.8,2.2,5.9,4,9.2,5.4l3.1,1.3c0.9,0.4,1.8,0.7,2.8,1.1l8.3,2.8
		c1,0.3,1.9,0.8,2.8,1.3l1.9,1.1c2.6,1.6,4.6,4,5.6,6.9l0,0c0.8,2.2,1,4.7,0.6,7l-0.2,1c-0.4,2.1-1.3,4.1-2.6,5.8l-0.8,1.1
		c-0.5,0.7-1.1,1.3-1.8,1.9l-4.5,4c-1.4,1.2-3.1,2.2-4.9,2.7l-10.7,3.3l-13.2,2.9c-0.3,0.1-0.5,0.1-0.8,0.1l-14,2.2l-16,1.7
		c-0.6,0.1-1.2,0.1-1.8,0.1l-14.2-0.3h-1c-2.8-0.1-5.5-0.7-8.1-1.8l0,0c-0.9-0.4-1.7-1-2.4-1.7l-0.4-0.4c-1-1.1-1.7-2.5-1.9-4l0,0
		c-0.2-1.6,0.1-3.3,1-4.7l1.8-3l4.4-6.7l1-1.5c2.1-3.4,3.4-7.2,3.9-11.1l0,0c0.2-1.3,0.2-2.7,0.2-4l-0.1-2.2c-0.1-3.2-0.8-6.4-2-9.3
		l-2.9-7.2l-3.5-6.7c-1.9-3.6-4-7.1-6.3-10.5l0,0c-3-4.3-5.6-8.9-7.8-13.6L293,185l-6.7-15.7l0,0l-5.1-19.7l-4.3-19.7l-2.3-13.1
		c-0.8-4.6-1.2-9.2-1.1-13.9l0.1-5c0.1-6,1-12,2.7-17.8l0.9-3.1c1.7-5.9,4.2-11.6,7.4-16.8l0,0c2-3.3,4.3-6.4,6.8-9.4l4.4-5
		C296.2,45.4,296.4,45.1,296.6,44.8L296.6,44.8z"/>
	<path class="st1" d="M353.5,63.9h-2.3c-0.7,0-1.5,0.1-2.2,0.3l-0.9,0.3c-1.6,0.5-3,1.6-3.9,3.1l-2.2,3.7c-0.1,0.2-0.2,0.3-0.2,0.4
		l-3.6,7.2l-5.2,8.7l-4.9,8c-0.2,0.3-0.4,0.6-0.6,0.9l-1.5,2.1c-1.4,1.9-2.3,4.1-2.7,6.4l-0.3,1.8c-0.1,0.8-0.2,1.6-0.2,2.4
		l-0.1,2.6c-0.1,2.6,0.5,5.2,1.8,7.6l0,0c0.7,1.3,1.6,2.6,2.6,3.7l0.9,0.9c1,1.1,2.1,1.9,3.4,2.7l4.3,2.6l7.7,4.7l2.1,1.3
		c1.5,1,3.3,1.5,5.2,1.6l3,0.1c1,0,2-0.1,2.9-0.4l3-0.8c2-0.6,3.8-1.8,5.2-3.4l0,0c1.4-1.7,2.1-3.8,2.2-6V124l0,0
		c0.1-3.2-1-6.3-3.1-8.8l0,0c-0.8-0.9-1.4-1.9-1.9-2.9l-2-4.3c-0.7-1.5-1.1-3.1-1.2-4.7l-0.4-5.6c0-0.5,0-0.9,0-1.4l0.4-9.4
		c0-1.1,0.2-2.2,0.4-3.3l1.6-7.4c0-0.1,0-0.3,0.1-0.4l0.5-3.2c0.2-1.5,0-3.1-0.8-4.4l0,0c-0.8-1.5-2.1-2.6-3.7-3.1l-1-0.4
		C355,64,354.2,63.9,353.5,63.9L353.5,63.9z"/>
</g>
<g id="c">
	<path class="st0" d="M469.9,34.1l-5.2-1.1c-1.1-0.2-2.3-0.4-3.5-0.4h-1.9c-3.4-0.1-6.8,0.8-9.8,2.4l0,0c-1.7,1-3.2,2.1-4.5,3.5
		c-2.7,2.9-7.3,7.8-7.3,7.8l-6.9,7.1c-2.1,2.2-4.1,4.5-5.9,7l0,0c-2.1,3-4,6.1-5.6,9.3l-3.6,7.4l-3,8.4c-1,2.8-1.5,5.7-1.6,8.6l0,0
		c0,2.4,0.2,4.8,0.8,7.1l0.2,1c0.9,3.9,2.7,7.5,5.1,10.7l1.9,2.5c0.7,0.9,1.5,1.8,2.4,2.7l7.3,7.2l4.1,3.7
		c3.9,3.5,7.5,7.3,10.8,11.4l2.4,2.9c3.2,3.9,6.1,8,8.7,12.2l6.3,10.4l6.7,10.2c2.4,3.7,5,7.2,7.8,10.6l14.2,16.9l13.1,14.8l6.8,6.6
		c2.5,2.5,4.8,5.2,6.8,8.2l2.1,3.2c0.9,1.4,1.8,2.9,2.6,4.4l2.2,4.2c0.7,1.3,1.3,2.6,1.9,3.9l4.1,9.5l2.7,9.1c0.2,0.5,0.3,1,0.5,1.6
		l1.5,4.1c0.7,1.9,1.7,3.7,3,5.4l0,0c1.7,2.2,3.8,4,6.2,5.4c0.9,0.5,1.9,1.1,2.8,1.6c1.7,1,3.5,1.7,5.5,2.2l8.8,2.2
		c1.5,0.4,3,0.6,4.6,0.6l22.5,0.5l17.8-0.7c2.1-0.1,4.2-0.5,6.1-1.2l0,0c3.8-1.4,7.2-3.8,9.7-7c1.5-2,3.3-4.2,4.6-5.9
		s2.5-3.6,3.5-5.6l4-8.2c1.4-3,2.4-6.1,2.9-9.4l0,0c0.7-4.9,0.3-9.8-1.1-14.5l-0.1-0.4c-1-3.1-1.7-6.2-2-9.5l0,0
		c-0.8-6.2-0.3-12.4,1.3-18.5l2.3-8.9l1.9-9.1c0.1-0.3,0.1-0.6,0.2-0.9l0.9-2.8c0.6-1.9,0.6-3.9,0-5.8l0,0c-0.7-2.2-2.1-4.1-4-5.3
		l-2.4-1.6c-1.6-1.1-3.6-1.6-5.5-1.5l-12.3,0.4l-25.1,0.2l-16.6,0.1l-9.7,1.3c-1.3,0.2-2.6,0.6-3.8,1.3l-1.2,0.7
		c-1.8,1.1-3.3,2.8-4,4.9l-1,2.7c-0.3,0.9-0.6,1.9-0.6,2.9l-0.1,1.6c-0.1,2,0.4,4,1.4,5.7l0,0c0.7,1.2,1.7,2.2,2.9,3l7.2,4.8
		c1.8,1.2,3.6,2.5,5.4,3.9l4.5,3.6c3.1,2.4,5.9,5.1,8.5,8.1l0.2,0.2c2.8,3.2,5.4,6.7,7.6,10.4l1.6,2.7c0.5,0.8,0.9,1.7,1.1,2.7
		l0.3,1.5c0.3,1.5,0.3,3-0.2,4.5l-0.1,0.5c-0.8,2.5-2.6,4.6-5,5.7l0,0c-1.2,0.5-2.5,0.8-3.9,0.7c-1.7-0.1-4.1-0.2-6.2-0.3
		c-2.8-0.1-5.6-0.7-8.2-1.8l-1.7-0.7c-2.6-1.1-5-2.6-7.1-4.6l0,0c-2.5-2.3-4.5-5.1-5.9-8.3c-1.3-2.9-2.6-6-2.6-6l-6.8-15.6
		c-0.9-2-1.9-3.9-3-5.8l-2.2-3.7c-2.1-3.5-4.5-6.8-7.4-9.7l0,0c-4.1-4.3-8.6-8.1-13.5-11.3l-1.2-0.8c-1.6-1-3-2.2-4.4-3.4l-14.5-13
		l-11-12.2c-0.7-0.8-1.4-1.7-2-2.7l-7.7-12.6c-0.6-1-1.1-2-1.5-3l-2.1-5.5c-2.6-6.8-4-10.8-5.3-17.5c-0.2-0.9-0.3-1.8-0.3-2.7v-5.6
		c0-2.3,0.5-4.5,1.5-6.6l0,0c1.6-3.2,4.1-5.8,7.1-7.5l0,0c2.4-1.3,5.1-2,7.9-1.9l1.3,0.1c3.2,0.2,6.2,1.1,9,2.7l3.7,2.2
		c1.9,1.1,3.6,2.5,5.1,4.1l5.6,5.9c0.6,0.6,1.2,1.3,1.7,2l0.3,0.4c3.2,4.1,5.4,8.8,6.6,13.8l0,0c0.5,2,0.4,4.1-0.2,6l-1.9,6.3
		c-0.1,0.3-0.2,0.7-0.3,1l-3.9,9.5c-0.3,0.7-0.4,1.4-0.5,2.1l-0.1,1.5c-0.1,1.9,0.6,3.9,1.9,5.2l0,0c1.4,1.5,3.4,2.2,5.5,2l9.6-0.8
		c1.1-0.1,2.2-0.2,3.3-0.4l16.5-3c0.7-0.1,1.4-0.2,2.1-0.3l17.4-2l8.5-1.2c0.5-0.1,1.1-0.2,1.6-0.3l2.5-0.6c2.6-0.7,5-2.1,6.9-4.1
		l0,0c1.6-1.7,2.8-3.7,3.4-5.9l0.8-2.8c0.6-2.2,0.8-4.4,0.4-6.7v-0.1c-1.4-7.9-5.1-15.1-10.7-20.8l0,0l-13.1-9.9
		c-1.6-1.2-3.3-2.4-5-3.5l-17.1-11l-11-7.2c-2.5-1.7-5-3.5-7.3-5.4l-4-3.3c-2.6-2.2-5.3-4.3-8.1-6.2l-1.9-1.4
		c-5.1-3.5-10.4-6.7-16-9.4l-2-1c-1.6-0.8-3.3-1.5-5.1-2.1l-9.5-3.2c-1.3-0.4-2.7-0.8-4-1.2L469.9,34.1L469.9,34.1z"/>
</g>
<g id="d">
	<path class="st0" d="M622.4,12.7l-3.9-0.7c-6.6-1.1-13.3-1.8-20-1.9l-5.8-0.1c-3.7-0.1-7.4,0-11.1,0.2l-10.3,0.6
		c-6.3,0.4-12.5,1.2-18.7,2.4l-5.9,1.2l-14.9,3.1l-10.6,3.8c-0.6,0.2-1.1,0.5-1.7,0.8l-1.9,1.2c-1,0.7-1.8,1.5-2.5,2.6l0,0
		c-0.7,1.1-1,2.4-1.1,3.8l0,0c0,1.6,0.4,3.2,1.3,4.5l1.8,2.8c0.4,0.6,0.9,1.2,1.5,1.7l3.4,2.8c1.5,1.2,3,2.3,4.7,3.4l10.5,6.6
		c1,0.6,1.9,1.3,2.9,2l14.4,11l21.2,14l18.4,15l8.7,9c2.8,2.9,5.4,6.2,7.5,9.7l0,0c2.2,3.7,4.1,7.6,5.4,11.7
		c1.7,5,3.7,11.3,3.7,11.3l0.8,2.2c1.8,5.4,4.4,10.5,7.6,15.2l0,0c1,1.4,2,2.8,3.1,4.2c3.5,4.4,11.5,14.4,11.5,14.4l7.4,10.8
		c1.8,2.6,3.1,5.4,4,8.4l3.7,13.1c0.8,2.7,1.1,5.6,1.1,8.4l-0.3,13.9l-0.4,19.1c0,1.4-0.2,2.9-0.4,4.3l0,0c-0.9,5-3.1,9.7-6.4,13.6
		c-0.7,0.8-1.2,1.3-1.2,1.3l-0.6,0.6c-3.7,3.7-6.9,7.9-9.4,12.5l0,0c-1.3,2.3-2,4.9-2,7.5c0,1.1,0,2.1,0,2.1v1.2c0,2,0.8,4,2.3,5.3
		l0,0c0.7,0.6,1.6,1.1,2.6,1.4l0,0c5.4,1.6,11,2.2,16.6,1.9c1.7-0.1,3.1-0.2,3.7-0.2c0.2,0,0.5,0,0.7-0.1l6.5-1
		c1.9-0.3,3.8-0.5,5.8-0.6l12.4-0.8c1.8-0.1,3.6-0.1,5.4-0.1l10.6,0.2c2.2,0,4.5,0,6.7-0.2l4.7-0.4c1.9-0.2,3.7-0.7,5.4-1.5l0,0
		c2.7-1.4,4.9-3.6,6.3-6.2c0.4-0.8,0.8-1.6,1.2-2.2c0.5-0.9,0.7-1.9,0.8-2.9v-0.1c0.1-1.9-0.4-3.7-1.5-5.2l-0.1-0.1
		c-2.6-3.6-6.1-6.4-10.2-8.1c-0.7-0.3-1.2-0.5-1.2-0.5l-2.2-1.1c-3-1.6-5.8-3.7-8-6.3l0,0c-2.2-2.5-4-5.2-5.3-8.3
		c-0.2-0.5-0.5-1.1-0.7-1.6c-1-2.4-1.7-4.9-2-7.4l-0.1-0.8c-0.7-4.6-0.9-9.3-0.7-14l0.9-19.5v-19.2c0-2.6,0.1-5.2,0.3-7.9l0.9-11.7
		c0.3-3.8,0.4-7.7,0.2-11.5l-0.3-7.9c-0.3-7.6,0.2-15.2,1.5-22.7l0,0c0.2-0.9,0.5-1.8,0.9-2.6c1.9-3.4,7-12.7,7-12.7l6.5-9.2
		c7.2-10.1,15.4-19.5,24.5-27.9l0,0c4-3.7,8.3-6.9,12.9-9.7c2-1.2,4-2.4,5.5-3.3c1.9-1.1,3.7-2.4,5.4-3.8l9.8-8l8.9-7.8l2-1.7
		c1-0.8,1.8-1.9,2.3-3.1l0,0c0.7-1.5,0.9-3.2,0.6-4.8c-0.1-0.5-0.2-1-0.3-1.5c-0.3-1.9-1.2-3.5-2.6-4.8l0,0c-4.4-4.1-9.8-7-15.6-8.5
		c-3.2-0.9-6-1.6-6-1.6l-9.5-1.6c-6.2-1-12.5-1.3-18.8-0.9l-6.7,0.5l-10,1.7c-3.6,0.6-7.2,1.5-10.7,2.7l-5.9,2l-7.5,2.5
		c-0.6,0.2-1.2,0.5-1.6,1l0,0c-0.9,0.9-1.4,2.1-1.3,3.4l0.1,1.8c0,1,0.5,2,1.1,2.7l0.8,0.9c1.1,1.2,1.9,2.5,2.3,4v0.1
		c0.5,1.5,0.6,3,0.5,4.6c-0.2,1.8-0.5,4.1-0.5,4.1c-0.2,1.6-0.7,3.1-1.5,4.4L689,60.8l-9.1,22.6l-6.9,18.4l-2,4.5
		c-0.7,1.6-1.8,2.9-3.3,3.7l0,0c-1.8,1-4,1.3-6,0.6l-1.9-0.6c-0.9-0.3-1.6-0.7-2.3-1.4l0,0c-2.3-2.4-4.2-5.1-5.6-8.2
		c-0.6-1.3-1.2-2.6-1.7-3.8c-1.1-2.4-2.3-4.8-3.7-7.1l-2.5-4.2c-2.6-4.3-5.6-8.4-9.1-12.1l-6.6-7.1l-6.5-6.6
		c-0.7-0.8-1.4-1.6-1.8-2.6l-1-2c-0.9-1.8-1.2-3.8-1-5.7v-0.1c0.2-1.7,0.8-3.3,1.8-4.7c0.8-1.1,1.8-2.6,2.8-3.9
		c1.8-2.6,3.9-4.9,6.2-7.1l2.4-2.3c0.7-0.6,2-2,2.5-2.8l1.7-3.5c0.5-1.1,0.7-2.3,0.7-3.5v-0.2c-0.1-2-1.1-3.9-2.6-5.2l0,0
		c-1-0.8-2.1-1.4-3.4-1.6C627,13.6,622.4,12.8,622.4,12.7L622.4,12.7z"/>
</g>
<g id="e">
	<path class="st0" d="M131.6,298.1l2.5,0.1c1.9,0,3.7,0.8,5,2.2l0,0c1.4,1.4,2.2,3.4,2.2,5.5l0,0c-0.1,2-0.5,4-1.4,5.9l-0.2,0.5
		c-0.6,1.4-1.1,2.9-1.3,4.4l-0.8,6.1l0.1,7.2c0,1.9,0.3,3.8,0.8,5.7l0,0c1.1,4,1.1,8.2-0.1,12.2l0,0c-0.5,1.8-1.4,3.4-2.6,4.8l0,0
		c-3.9,4.5-9.1,7.6-14.9,8.9l-2.9,0.6c-1.1,0.2-2.3,0.4-3.4,0.3L96.2,362l-14,0.1c-0.6,0-1.2,0-1.8,0.1l-4.9,0.7
		c-1.4,0.2-2.8,0.7-4,1.6l0,0c-2.3,1.6-3.7,4.2-3.7,7l0,0c0,1.5,0.4,2.9,1.2,4.2l0.2,0.3c1.2,1.7,3,2.9,5,3.2l1.5,0.3
		c1.3,0.3,2.7,0.2,4-0.3l3.6-1.2c0.5-0.2,1-0.4,1.4-0.6l1.2-0.7c1.2-0.7,2.6-1,4-1.1l4.6-0.1c1.1,0,2.2,0.2,3.3,0.6l0,0
		c2.7,1,4.6,3.3,5.3,6.1l1.2,5.1c0,0.1,0.1,0.3,0.1,0.5l0.7,8.3c0.2,1.9,0.1,3.8-0.1,5.7l-1,8.7c-0.1,1.1-0.2,2.2-0.2,3.3v9.7
		c0,0.7,0,1.4,0.1,2.1l0.5,6.5c0,0.6,0.1,1.1,0.2,1.7l1.4,10.3c0.2,1.3,0.1,2.5-0.2,3.8l0,0c-0.6,2.8-2.4,5.2-4.9,6.7L100,455
		c-0.8,0.5-1.8,0.9-2.7,1.2l-5.5,1.5c-1.9,0.5-3.9,0.8-5.9,0.7l-9.9-0.3c-1.1,0-2.3,0.1-3.4,0.4l-0.4,0.1c-1.5,0.4-2.9,1.1-4.1,2
		l-0.2,0.2c-0.7,0.6-1.4,1.2-2,1.9l0,0c-0.7,0.9-1.3,1.9-1.8,3l-0.7,1.8c-0.3,0.8-0.5,1.7-0.5,2.6v1.5c0,1.3,0.3,2.6,1,3.7l0.2,0.4
		c0.9,1.5,2.2,2.6,3.9,3.2l0,0c0.7,0.2,1.4,0.4,2.1,0.4l6.9,0.3c1.1,0,2.2,0,3.3-0.1l5.9-0.7c1.6-0.2,3.1-0.6,4.6-1.1l5.4-2
		c2.5-1,4.8-2.5,6.6-4.5l2.7-3.1c0.7-0.8,1.3-1.7,1.8-2.7l4.1-8.7c0.3-0.7,0.6-1.5,0.8-2.2l0.8-3.3c0.6-2.5,1.9-4.9,3.8-6.7l0,0
		c2.4-2.4,5.9-3.3,9.2-2.6l0,0c2,0.5,3.8,1.8,4.6,3.7l0.3,0.7c1,2.1,1.7,4.3,2.1,6.5l1.9,9.7l1.5,9.9c0.4,2.4,0.9,4.7,1.7,7l1.4,4
		c1.5,4.6,2.2,9.4,2.1,14.2l-0.1,2.3c-0.1,1.7-0.3,3.4-0.9,5l-0.3,1c-1.6,5-5.4,9-10.3,10.9l0,0c-2.2,0.9-4.6,1.3-6.9,1.2l-14.9-0.4
		l-7.1-0.2c-4.8-0.1-9.5,0.3-14.2,1.2l-7.8,1.5l-15.2,3.4l-14.4,2.9l-5.9-0.2c-1.6,0-3.1-0.6-4.4-1.6l0,0c-1.5-1.2-2.5-3-2.7-5
		l-1.1-10.2L34.1,497c-0.2-1.5-0.3-2.9-0.3-4.4l-0.5-17.1c0-1,0-1.9,0-2.8l0.5-16.7c0-1.9,0.2-3.8,0.5-5.7L36,438
		c0.3-2.2,0.5-4.5,0.5-6.8l0.1-18l1.6-27.8c0.1-1.8,0.1-3.5,0-5.2L37,360.9l-0.4-9.7c-0.1-1.8-0.2-3.5-0.5-5.3l-2.4-16.4l-1.5-8.3
		c-0.1-0.7-0.2-1.4-0.2-2l0.2-6.1c0-1.9,0.7-3.8,1.7-5.3l0,0c1.3-1.9,3.2-3.2,5.3-3.9l3.8-1.2c0.7-0.2,1.4-0.3,2-0.4l9.4-0.8
		l15.8-0.3l13.9-2.3l12-1.7l11.2,0.3l12.7,0.3L131.6,298.1L131.6,298.1z"/>
</g>
<g id="f">
	<path class="st0" d="M207.9,304l-7.9-2.1l-7.8-1.6c-1.7-0.4-3.5-0.6-5.3-0.6l-10.1-0.3l-5.7-0.1c-3.3-0.1-6.5,0.4-9.6,1.4l-6.5,2.1
		c-0.8,0.3-1.6,0.6-2.3,1l0,0c-4.2,2.5-7.4,6.2-9.2,10.7v0.1c-0.4,1.1-0.7,2.3-0.7,3.5l-0.1,5.2c0,0.7,0,1.4,0.1,2.1l1.3,7.6
		c0.1,0.3,0.1,0.6,0.2,1l1.9,6.8c0.5,1.7,0.8,3.5,0.8,5.2l0,0c0.1,2.8-0.3,5.7-1.2,8.4l-2.4,6.7l-1.8,7c-0.2,0.7-0.4,1.4-0.8,2.1
		l-2.6,5c-0.7,1.3-1.1,2.8-1.1,4.3l0,0c0,1.4,0.2,2.8,0.8,4.1l0.7,1.6c0.4,1,1.1,2,1.8,2.8l3.9,4.3c1.2,1.4,2.6,2.6,4.2,3.6l6.8,4.7
		l10.2,6.5l11.2,4.5l5,1.3c2.1,0.5,4.2,1.5,6,2.8l4.4,3.1c1.3,1,2.5,2.1,3.5,3.4l7,8.7l3.7,5.2c1.9,2.6,3.2,5.6,4.1,8.7l1.5,5.6
		c0.4,1.5,0.7,3.1,0.8,4.6l0.5,5.2c0.3,2.8,0.1,5.7-0.6,8.5l-0.4,1.7c-0.5,2.3-1.8,4.4-3.6,5.8l-2.4,1.9c-0.8,0.6-1.7,1.2-2.6,1.5
		l-0.8,0.3c-3.3,1.3-7,0.9-9.9-1.1l0,0c-1-0.7-1.8-1.6-2.5-2.5l-3.4-4.9c-1.6-2.3-2.8-4.9-3.4-7.6l-1.1-4.6
		c-0.5-2.2-0.7-4.5-0.6-6.8l0.5-7.2l0.6-8.4c0.1-1,0-2.1-0.2-3.1l0,0c-0.6-3.2-2.4-6-5.1-7.8l0,0c-1.6-1.1-3.5-1.8-5.4-2.1l-4.5-0.6
		c-1.1-0.1-2.3-0.2-3.5-0.3l-4.4-0.1c-3.8-0.1-7.5,0.4-11.1,1.5l-4.1,1.2c-0.6,0.2-1.3,0.5-1.8,0.8L140,428
		c-1.5,0.9-2.8,2.2-3.5,3.8l0,0c-0.5,1.1-0.8,2.3-0.9,3.5l-0.1,3.4c0,1.4,0.1,2.9,0.5,4.2l1.5,5.5c0.3,1.1,0.8,2.2,1.3,3.3l3.6,6.4
		l4.1,5.7c1,1.4,1.8,2.8,2.4,4.4l0.7,1.6c0.8,1.9,1.3,3.9,1.6,6l1,8.3l1.2,7.8c0.4,2.2,1,4.4,1.9,6.5l2.4,5.6c1,2.3,2.3,4.4,3.9,6.4
		l2.9,3.5c1.7,2.2,3.8,4,6.1,5.6l3.3,2.2c2,1.3,4.2,2.4,6.5,3.2l3.3,1.1c2.6,0.8,5.2,1.3,7.9,1.4l6.3,0.2c2.8,0.1,5.6-0.3,8.2-1
		l9.2-2.5c1-0.3,1.9-0.6,2.9-0.9l13.8-5.4c1.8-0.7,3.4-1.5,5-2.6l3.7-2.4c3.8-2.4,7.2-5.3,10.2-8.6l4.7-5.2c1-1.1,1.9-2.2,2.6-3.5
		l2.7-4.4c1.6-2.6,2.8-5.5,3.5-8.6l1.4-5.9c0.5-1.9,0.7-3.9,0.8-5.9l0.2-8.4l-0.4-8.2c-0.1-2.5-0.6-5.1-1.5-7.5l-4.5-12.8l-4-11.2
		c-0.3-0.9-0.7-1.8-1.2-2.7l-4.4-8.3c-1-1.9-2.2-3.7-3.7-5.3l-1-1.1c-2.5-2.8-5.6-5.1-9.1-6.7l-6.4-2.9l-10-4.3
		c-2.2-1.1-4.6-2-7-2.6l-10.7-2.5l-7.9-3c-1.8-0.7-3.4-1.7-4.8-3.1l-3.2-3.3c-1.1-1.1-2-2.5-2.7-4l-2.5-5.8
		c-0.7-1.7-1.3-3.4-1.8-5.2l-2-7.6l-0.9-5.2c-0.5-2.7,0-5.4,1.3-7.8l0.1-0.1c0.7-1.4,1.9-2.5,3.4-3l0,0c1.7-0.7,3.6-0.6,5.3,0.2
		l3.7,1.8c1,0.5,1.8,1.1,2.4,2l2.6,3.5c1.8,2.3,3.2,4.9,4.2,7.6l1.3,3.6c0.4,1.1,0.8,2.2,1,3.4l1.1,4.7c0,0.1,0,0.1,0,0.2l-0.1,1.8
		c-0.1,2.5-1.1,4.8-2.9,6.6l0,0c-0.1,0.1-0.3,0.3-0.4,0.5l-0.7,1.2c-0.5,0.8-0.5,1.9-0.1,2.7l0,0c0.3,0.5,0.7,0.9,1.2,1.1l3.4,1.6
		l7.9,2.2l9.4,3l6.3,2.6l7.5,4.2l3.9,1.6c1,0.4,2,0.6,3.1,0.5l0,0c1.2-0.1,2.5-0.5,3.5-1.1l0.9-0.5c0.8-0.5,1.5-1.4,1.8-2.3l0,0
		c0.3-0.9,0.3-1.8,0-2.6l-0.9-2.9c-0.2-0.5-0.4-1-0.8-1.5L245,382c-1.1-1.3-2-2.7-2.9-4.2l-4.1-7.5c-0.4-0.8-0.9-1.6-1.4-2.3
		l-3.6-5.2c-1.3-1.9-2.4-3.8-3.3-5.9l-1.2-2.7c-0.9-2.1-1.7-4.3-2.2-6.6l-1.4-6.1l-1.8-10.3l-1.7-10.6l-0.6-3
		c-0.3-1.6-0.9-3.1-1.6-4.6l0,0c-0.9-1.7-2.1-3.3-3.6-4.6l-0.2-0.2c-0.6-0.5-1.2-1-1.8-1.5l-0.2-0.1
		C211.8,305.4,209.9,304.6,207.9,304L207.9,304z"/>
</g>
<g id="g">
	<path class="st0" d="M272.6,299.3c-1.1-0.4-2.2-0.6-3.3-0.6l-5.3-0.1l-6.1-0.2c-1.2,0-2.5,0-3.7,0.2l-5.7,0.7l-5.3,0.8
		c-0.8,0.1-1.7,0.3-2.5,0.5l-2,0.5c-1.7,0.4-3.4,1.1-4.9,1.9l-1.6,0.8l-2.7,1.3c-1,0.5-1.9,1.3-2.4,2.4l0,0
		c-0.4,0.7-0.6,1.5-0.6,2.2v0.1c0,1.3,0.4,2.5,1.2,3.5l0.5,0.6l0.3,0.3c1.6,1.8,2.7,3.9,3.3,6.2l1,4.2l2.3,11.3
		c0.2,0.9,0.4,1.9,0.5,2.8l0.9,6.4c0.4,2.6,1,5.2,1.8,7.8l1.7,5.1c0.5,1.6,1.2,3.1,2.1,4.5l5.4,9.4c1.3,2.2,2.4,4.5,3.4,6.9
		l5.9,14.7c0.3,0.8,0.6,1.7,0.9,2.5l4.2,13.1c0.7,2.1,1.5,4,2.5,6l3.4,6.6c1.5,2.9,2.7,6,3.4,9.1l2.7,10.9l3.3,25.8
		c0.1,0.5,0.1,1,0.2,1.5l1.2,6c0.5,2.4,0.5,4.9,0.2,7.4l0,0c-0.4,2.9-1.4,5.7-2.8,8.3l-3.9,6.7c-0.4,0.7-0.8,1.3-1.3,1.9l-6.9,9
		c-0.5,0.6-0.8,1.3-1,2.1l-1,3.4c-0.2,0.9-0.3,1.8-0.1,2.7l0.1,0.7c0.3,1.6,1.1,3,2.5,4l0,0c1,0.7,2.2,1.2,3.5,1.2l6.7,0.2
		c1.4,0,2.8,0,4.1-0.3l19.3-3l15-2.4c1.9-0.3,3.7-0.8,5.4-1.6l6-2.6c0.6-0.3,1.2-0.6,1.7-1l0.9-0.7c0.9-0.7,1.6-1.6,2.2-2.6l1.5-2.9
		c0.5-1,0.8-2.1,0.8-3.3l0,0c0.1-2.2-0.8-4.3-2.5-5.8l-1.5-1.4l-4.4-3.7l-3.3-3c-1.8-1.6-3.3-3.6-4.3-5.9l-2-4.2
		c-0.4-0.9-0.8-1.8-1.1-2.8l-4.4-15l-4-17.7l-4.1-14.4l-2.1-5.9l-0.8-5.5c-0.1-0.6,0-1.3,0.2-1.9l0.6-1.6c0.5-1.5,1.9-2.6,3.5-2.7
		l0,0c0.9-0.1,1.9,0.2,2.6,0.8l2,1.5c1.5,1.1,2.7,2.5,3.5,4.1l2.7,5.4l8.8,17.9l8.7,15.6l9.4,19.6l2.9,6c0.3,0.6,0.5,1.3,0.6,2l0,0
		c0.3,1.8,0,3.6-1,5.2l-0.5,0.8l-2.2,3.7c-0.3,0.5-0.5,1-0.8,1.5l-0.7,1.5c-0.8,1.6-1.3,3.3-1.6,5l0,0c-0.3,1.7-0.4,3.4-0.2,5.1
		l0.2,2.1c0.1,0.8,0.3,1.5,0.6,2.3l0,0c0.7,1.8,2,3.3,3.7,4.2l0.7,0.4c0.6,0.3,1.2,0.6,1.8,0.7l2.3,0.6c3,0.8,6,1.3,9.1,1.3l4.9,0.1
		c0.7,0,1.3,0,2,0l7.1-0.4c1.8-0.1,3.6-0.4,5.4-0.8l7.4-1.9l6-1.7c2.2-0.6,4.3-1.9,5.9-3.5l1.3-1.3c0.9-1,1.7-2.1,2.3-3.2l1.5-3.1
		l0.9-3.8c0.2-1,0.3-2.1,0.2-3.1l-0.2-1.8c-0.3-2.3-1.6-4.4-3.4-5.7l0,0c-0.9-0.6-1.8-1.1-2.8-1.3l-5.2-1.3l-6.8-2.5
		c-0.9-0.3-1.7-0.7-2.5-1.2l-2.5-1.5c-1.2-0.7-2.3-1.6-3.3-2.5l-4.7-4.6l-5.4-6.3c-2.6-3.1-4.9-6.4-6.8-9.9l-8.1-15.2l-8.8-14.9
		l-10-15.4l-6-7l-4.1-2.9c-0.8-0.5-1.4-1.2-2-1.9l-0.4-0.5c-1.7-2.2-2.4-5-1.9-7.8l0.4-1.9c0.4-2.1,1.3-4,2.7-5.7l3.1-3.7l11.8-18.5
		l13.9-19.7l10.1-14.9l2.1-3.2c0.8-1.1,1.4-2.4,1.8-3.6l1.2-3.3c0.4-1.2,0.7-2.5,0.8-3.7l0.4-3.7c0.1-1.2,0-2.3-0.4-3.4l0,0
		c-0.7-1.9-2-3.5-3.8-4.4l-1-0.5c-0.8-0.4-1.6-0.6-2.4-0.8l-7.7-1.2c-0.8-0.1-1.5-0.2-2.3-0.1l-14.4,0.8l-14.5,1.9l-11.6,1.9
		l-7.4,2.5l-2.9,2.7l-1.6,4.5l1,6.8l2.2,6.7l1.7,6.3l1.9,8.4l-0.1,9.1l-1,8.9l-1.8,6.4l-3.9,2.4l-4.6-2.4l-2.9-6.6l-2.4-8.5
		l-1.4-8.4l0.1-9.1l0.7-8.5l0.6-6.9l-0.2-4.9c-0.1-1.1-0.3-2.2-0.6-3.2l-0.7-1.9c-0.4-1-0.9-2-1.5-2.9l-0.7-1
		C276.7,301.4,274.8,300,272.6,299.3L272.6,299.3L272.6,299.3z"/>
</g>
<g id="h">
	<path class="st0" d="M435.1,305.6c-1.5-0.5-3.1-0.9-4.8-1.1l-6.1-0.9l-10.5-1.2l-11.4-0.3l-8.6-0.2c-0.8,0-1.5,0-2.3,0.1l-3.5,0.3
		c-2.6,0.2-5.2,0.8-7.7,1.8l-3.3,1.2c-0.8,0.3-1.5,0.7-2.1,1.1l0,0c-1.7,1.2-2.9,2.9-3.4,4.9l-0.7,2.5c-0.2,0.9-0.5,1.7-0.9,2.6
		l-5.5,13.1l-4.4,9.2c-1,2.2-2.3,4.3-3.7,6.2l-8,11.1l-8.9,10l-4.9,4.9c-1.6,1.6-3,3.5-4,5.6l-1.4,2.8c-1,2-1.6,4.1-2,6.3l0,0
		c-0.5,3-0.3,6.1,0.5,9.1l0.3,1.1c0.6,2.1,1.5,4.2,2.7,6l5.2,8.1l11.9,19.3l8.1,14c1,1.7,2.2,3.3,3.5,4.8l6.2,6.9
		c1.2,1.4,2.6,2.6,4.1,3.7l9.3,7.8l11.5,8.1c1.2,1,2.6,1.8,4.1,2.4l12.3,5.4l8,2.7c2.9,1,5.8,1.5,8.8,1.6h0.5
		c4.1,0.1,8.2-0.6,12-2.1l1.7-0.7c2.2-0.9,4.2-2.2,6-3.9l0.6-0.6c1-1,2-2.2,2.7-3.4l3.7-6.1c1-1.6,1.8-3.3,2.3-5.1l0.4-1.3
		c0.5-1.8,0.8-3.7,0.9-5.6l0.1-4.6l0.2-6.8c0.1-2.3,0.4-4.5,1.1-6.7l2.5-8.2c0.4-1.4,1-2.7,1.6-4l1.9-3.6l4.4-6.3
		c0.1-0.2,0.3-0.4,0.4-0.6l2.2-3.8c0.7-1.1,1.1-2.4,1.3-3.8l0.1-1.1c0.3-1.9-0.1-3.9-1-5.6l-0.1-0.1c-0.7-1.4-1.7-2.5-3-3.4l-2-1.4
		c-1.3-0.9-2.7-1.5-4.3-1.8l-3.5-0.7c-3-0.6-6.1-0.7-9.1-0.3l-7.2,0.9l-11.6,2.3l-5.9,2.1c-0.6,0.2-1.2,0.6-1.6,1.1l-1.1,1.2
		c-0.4,0.4-0.7,0.9-0.9,1.5l0,0c-0.4,1.1-0.3,2.4,0.4,3.4l0.6,1l2.6,3c0.6,0.7,1.1,1.4,1.6,2.2l0,0c1.6,2.7,2.6,5.6,3,8.8v0.3
		c0.1,1.1,0,2.2-0.3,3.2l-1.1,3.3c-0.2,0.7-0.6,1.3-1,1.9l-1.1,1.5c-2.3,3.3-5.8,5.6-9.7,6.5l0,0c-2.1,0.5-4.4,0.6-6.5,0.2l-1-0.2
		c-3.6-0.6-7-1.5-10.4-2.8l-1.3-0.5c-2.9-1.1-5.5-2.5-8-4.3l-6.1-4.4c-2.1-1.5-4-3.2-5.7-5l-3.1-3.4c-1.7-1.8-3.2-3.9-4.4-6
		l-1.3-2.1c-1.6-2.6-2.6-5.6-3-8.6l-0.4-2.6c-0.2-1.2-0.2-2.5-0.2-3.8l0,0c0.1-3.3,0.9-6.6,2.4-9.6l0.4-0.8c0.1-0.2,0.2-0.5,0.4-0.7
		l0.9-1.4c1-1.5,2.5-2.5,4.2-2.9l0,0c1.8-0.4,3.7,0,5.3,1.1l1.1,0.8c0.4,0.3,0.8,0.5,1.2,0.7l6.2,2.7c1.1,0.5,2.2,0.9,3.4,1.2
		l6.5,1.9c1.7,0.5,3.5,0.8,5.3,1l6.4,0.5l11.4,1c1.2,0.1,2.4,0.1,3.6,0l3.5-0.3c1.6-0.1,3.1-0.4,4.6-0.9l3.4-1.1
		c2.6-0.8,5.1-2.2,7.1-4l0.5-0.4c1.3-1.1,2.5-2.4,3.4-3.8l3.1-4.5c1.1-1.5,1.9-3.2,2.5-5l3.2-9.4c0.5-1.3,0.8-2.6,1.1-4l1.4-6.9
		c0.2-0.8,0.3-1.6,0.4-2.4l0.8-5.1c0.5-3,0.6-6,0.4-9.1l-0.2-3.2l-1-5.2c-0.5-2.4-1.3-4.6-2.6-6.7l-0.6-1.1c-1-1.8-2.4-3.4-3.9-4.8
		l-0.6-0.6c-1.3-1.2-2.7-2.2-4.1-3.2l-0.3-0.2c-2.1-1.4-4.4-2.4-6.8-3.2L435.1,305.6L435.1,305.6z"/>
	<path class="st1" d="M391.1,347.7l0.5-1.4l3.2-7.1c0.6-1.2,1.3-2.4,2.1-3.4l1-1.2c2.3-2.7,5.4-4.4,8.9-5l2.7-0.4
		c0.9-0.1,1.7-0.2,2.6-0.2l5.8,0.2c2.1,0.1,4.2,0.7,6,1.9l2.1,1.4c1.6,1.1,2.9,2.5,3.8,4.2l0.7,1.3c0.9,1.8,1.5,3.7,1.6,5.6l0.2,2.1
		c0.1,0.9,0,1.8,0,2.7l-0.3,2.5c-0.3,2.7-1.5,5.1-3.4,7l0,0c-1.2,1.2-2.6,2-4.1,2.6l-2.7,1c-1.4,0.5-2.8,0.7-4.3,0.7l-6-0.2
		l-6.8-0.2c-1.5,0-3.1-0.2-4.6-0.6l-7.6-1.9l-3.8-1.1c-0.4-0.1-0.8-0.4-1.1-0.7l-0.7-0.8c-0.7-0.8-0.9-1.9-0.4-2.8l0,0
		c0.1-0.3,0.3-0.5,0.5-0.7l0.4-0.4C389.1,351.5,390.3,349.7,391.1,347.7L391.1,347.7z"/>
</g>
<g id="i">
	<path class="st0" d="M489.7,309.3l-1.6,0.4c-1.1,0.2-2.2,0.4-3.3,0.3l-2.9-0.1c-0.4,0-0.7,0-1.1-0.1l-7.7-0.9
		c-1.2-0.1-2.5-0.2-3.7-0.3h-1.5c-1.7,0-3.4,0.1-5.1,0.3l0,0c-1.3,0.2-2.4,1-3,2.1l0,0c-0.7,1.3-0.7,2.9,0,4.1l0,0
		c0.8,1.4,1.4,2.9,2,4.4l2.1,6.4c0.2,0.7,0.5,1.5,0.6,2.3l1.1,4.6c0.2,0.8,0.4,1.7,0.5,2.5l1,7.2c0.1,1.1,0.2,2.1,0.3,3.2l0.3,5.8
		c0,0.8,0,1.7,0,2.5l-0.2,5.8c0,1.2,0,2.4,0.1,3.5l0.1,1c0.2,2.3,0.6,4.6,1.2,6.8l1,3.5l4.1,11.6l4.1,12.4c0.5,1.6,0.9,3.2,1,4.9
		l0,0c0.4,3.8-0.2,7.6-1.7,11.1l-0.3,0.8c-0.9,2.2-2.1,4.2-3.6,6.1l-2,2.5c-0.8,1-1.5,2.1-2.2,3.2l-0.5,0.8c-1.3,2.2-2.3,4.7-3,7.2
		l-1.7,6.3c-0.4,1.6-0.8,3.2-1,4.8l-1.8,14l-1.3,5.9c-0.4,1.5-0.8,3-1.5,4.5l-1,2.4c-0.7,1.7-1.7,3.3-2.8,4.9l-5.6,7.8l-6.6,9.9
		l-2.6,4.4c-0.8,1.4-1.4,2.9-1.7,4.4l0,0c-0.4,2.1-0.4,4.2,0.1,6.3v0.1c0.2,1,0.6,2,1,3v0.1c1.3,2.7,3.3,5,5.9,6.7l0,0
		c0.3,0.2,0.5,0.3,0.9,0.4l3.9,0.9c2.8,0.6,5.6,0.8,8.5,0.6l4.6-0.4c0.5,0,1.1-0.1,1.6-0.1l13-0.2l15.2,0.4l15.1,0.8
		c0.6,0,1.2,0,1.8,0l11.9-0.2c0.8,0,1.5-0.1,2.3-0.2l4.9-0.7c1.8-0.2,3.5-0.8,5.2-1.5l1.5-0.7c1.1-0.5,2.2-1.2,3.1-2l1.3-1.1
		c0.7-0.6,1.3-1.2,1.9-1.9l0.6-0.8c1.6-2,2.6-4.3,3.2-6.7l0.4-1.7c0.2-0.8,0.2-1.5,0.3-2.3l0.1-3.4c0-1.2,0.2-2.5,0.6-3.6l0.2-0.6
		c0.4-1.2,0.9-2.3,1.7-3.4l0,0c1-1.4,1.5-3.1,1.6-4.8l0,0c0-1.2-0.2-2.5-0.8-3.6l-0.4-0.8c-0.3-0.7-0.8-1.4-1.2-2l-0.8-1
		c-1-1.3-2.5-2.3-4.1-2.7l-0.8-0.2c-1.1-0.3-2.3-0.4-3.5-0.1l-1.5,0.3c-1.7,0.3-3.4,0.8-5,1.3l-4.8,1.6c-1.7,0.5-3.4,0.9-5.2,1
		l-5.6,0.4h-3.7c-3.7,0-7.4,0.4-11,1.2l-4.1,1l-4.5,1.1c-0.6,0.2-1.2-0.4-1.1-1l1.1-2.9c0.5-1.1,0.8-1.3,1.2-2.2l1-1.7
		c0.4-0.6,0.7-1.1,1.1-1.6l1.1-2.2c0.9-1.5,1.1-2,1.4-2.6l1.6-3.7c0.8-1.6,1-2.4,1.9-4.2l1.2-3c0.4-1.1,0.9-2,1.2-3l5.2-14.6
		c0.5-1.4,0.8-2.8,1-4.3l0.8-7.2l2.4-18.9l0.9-17.3l1-13.1c0.4-4.8,0.3-9.6-0.3-14.4l-0.5-4.4c-0.1-0.8-0.2-1.7-0.4-2.5l-1.6-9.3
		c-0.2-1.1-0.4-2.2-0.7-3.2l-3.3-13.1l-3.8-12.2c-0.4-1.3-0.9-2.5-1.5-3.7l-0.6-1.1c-1.2-2.2-2.7-4.2-4.6-5.9l-0.1-0.1
		c-0.7-0.6-1.5-1.2-2.4-1.6l0,0C494.2,309,491.9,308.8,489.7,309.3L489.7,309.3z"/>
</g>
<g id="j">
	<path class="st0" d="M579.5,357.8c0.2,0.8,0.2,1.5,0.2,2.3l-0.1,5l-0.1,3.5l-0.1,2.6c0,1.1,0.2,2.2,0.7,3.2l0.3,0.6
		c0.5,1,1.6,1.7,2.7,1.7l3.3,0.1c0.1,0,0.2,0,0.3,0l9.9-0.6c3.7-0.2,7.4-0.9,10.9-2.1l5.2-1.7l5-1.4c1.2-0.3,2.4-1,3.3-1.9l1.2-1.2
		c1-1,1.1-2.7,0.1-3.8l-1-1.2l-2.6-2.5c-1.2-1.2-2.2-2.5-3-4l-4.5-8.9c-0.2-0.3-0.3-0.6-0.5-1l-4-6.6c-0.2-0.3-0.3-0.5-0.5-0.8
		l-2.8-5.4c-0.6-1.2-1.3-2.3-2.1-3.3l-0.2-0.3c-2.7-3.6-6.2-6.5-10.3-8.4l-2.5-1.1c-1.5-0.7-3-1.2-4.6-1.6l-1.1-0.3
		c-4.4-1.1-8.8-1.7-13.3-1.9l-5.9-0.2c-2.1-0.1-4.2,0-6.3,0.1l-3.9,0.3c-3.2,0.2-6.4,1.1-9.3,2.6l-0.3,0.1c-3.9,1.9-7.2,4.8-9.7,8.4
		l-0.3,0.5c-1.7,2.5-3,5.3-3.9,8.2l-0.1,0.3c-0.7,2.5-1.1,5-1.2,7.5l-0.1,4.8l-0.2,9.3c-0.1,2.6,0.1,5.1,0.4,7.7l0.5,3.9
		c0.2,1.5,0.5,2.9,0.9,4.3l0.8,2.9c0.5,1.9,1.3,3.8,2.2,5.6l1.1,2.1c0.8,1.7,1.9,3.2,3.2,4.5l0,0c1.4,1.5,3,2.7,4.7,3.6l3.7,2l9.3,5
		l12.4,5.7l0.4,0.2c5.5,3.3,10.3,7.6,14,12.8l3.4,4.7c2,2.7,3.7,5.6,5,8.7l2,4.6l2.1,4.6c1.3,2.9,2,6,2.2,9.1l0.1,1.6l-0.2,4
		c-0.1,1.6-0.7,3-1.7,4.2l0,0c-1.2,1.4-2.8,2.4-4.7,2.6l0,0c-1.7,0.3-3.4,0-4.8-0.8l-4.8-2.5c-1.3-0.7-2.6-1.5-3.7-2.5l-5.5-4.7
		c-0.8-0.7-1.6-1.5-2.3-2.3l-3.7-4.4c-1.2-1.4-2.2-3-3.1-4.6l-1.5-2.9c-0.7-1.4-1.3-3-1.6-4.5l-0.5-2.5c-0.1-0.6-0.2-1.2-0.4-1.8
		l-0.6-2c-0.8-2.6-2.1-5.1-3.9-7.2l0,0c-1.1-1.4-2.5-2.5-4.1-3.4l0,0c-2.1-1.1-4.4-1.8-6.7-1.9l-2.1-0.1c-1.5,0-3.1,0-4.6,0.3
		l-4.9,0.7c-0.7,0.1-1.5,0.2-2.2,0.4l-3,0.7c-2.3,0.6-4.4,1.8-6.1,3.5l0,0c-1.3,1.3-2.2,2.9-2.8,4.6l-1.1,3.1
		c-0.5,1.3-0.7,2.7-0.8,4.1l0,0c-0.1,3.1,0.3,6.2,1.2,9.1l0.4,1.5c0.5,1.7,1.1,3.3,1.8,4.9l0.9,2c0.9,1.9,2.1,3.6,3.5,5.1l3,3
		c0.9,0.9,1.9,1.7,3,2.4l6.3,3.9l11.5,6.8c1.1,0.6,2.1,1.4,3.1,2.1l4.2,3.2c1.5,1.2,3,2.5,4.3,4l4.8,5.4l3,3.4
		c1.9,2.1,4.2,3.8,6.7,4.8l0,0c2.9,1.2,6,1.9,9.2,2l2.9,0.1c1.6,0,3.2-0.1,4.7-0.3l7-1.1c1.1-0.2,2.2-0.5,3.2-0.8l6.4-2.3
		c1.7-0.6,3.4-1.4,5-2.3l3.4-2c1.7-1,3.3-2.3,4.7-3.8l4-4.3c1.3-1.4,2.5-3,3.3-4.8l1.1-2.2c1.1-2.2,1.9-4.5,2.4-6.9l0.3-1.6
		c0.4-1.7,0.6-3.4,0.6-5.1l0.2-7.1l0.2-5.4c0.1-3.8-0.4-7.5-1.4-11.1l-1.4-4.9l-3.2-8.6c-0.8-2.3-1.9-4.5-3.2-6.5l-1.8-3
		c-1.5-2.4-3.2-4.6-5.2-6.5l-1.2-1.3c-3.1-3.1-6.4-5.9-9.9-8.5l-3-2.1l-3.2-2.1c-4.9-3.2-10-5.8-15.5-7.9l-4.9-1.8
		c-0.7-0.3-1.3-0.6-2-0.9l-6.3-3.6c-1.7-1-3.2-2.4-4.3-4l-2.7-4c-1.1-1.6-1.8-3.5-2.1-5.5l-0.6-4.4c-0.1-0.8-0.1-1.7,0-2.5l0.3-2.6
		c0.3-2.5,1.5-4.9,3.3-6.6l0.2-0.2c1.2-1.1,2.8-1.7,4.5-1.7h1.7c1.2,0,2.5,0.3,3.5,1l0.2,0.1c1.6,1,2.8,2.3,3.7,3.9l0.7,1.3
		c0.4,0.8,0.7,1.6,0.9,2.5L579.5,357.8L579.5,357.8z"/>
</g>
<g id="k">
	<path class="st0" d="M684.8,347.3l2.5-1.8c1-0.7,1.8-1.5,2.5-2.5l0,0c1.2-1.9,1.9-4,2-6.2l0,0c0-1.7-0.3-3.4-1.1-4.9l-1.8-3.4
		c-0.4-0.8-0.6-1.7-0.6-2.6v-1c0-1.2-0.7-2.2-1.8-2.6l0,0c-0.5-0.2-1-0.2-1.5,0l-4.3,1.3l-5.5,0.8c-0.7,0.1-1.4,0.2-2.1,0.2l-14.9,1
		l-12.3,0.9l-10.5,0.1l-9.7,0.7l-3.1,0.1c-1.5,0-3.1,0.4-4.5,1.1l0,0c-0.9,0.4-1.7,1.1-2.3,1.9l0,0c-0.7,1-1.2,2.2-1.2,3.5l0,0
		c0,1.6,0.2,3.2,0.7,4.8l0.7,2.2c0.3,0.9,0.6,1.7,0.9,2.5l1.9,4.7c0.4,0.9,0.8,1.9,1.3,2.8l2.3,4.3c0.3,0.5,0.5,1,0.7,1.5l1.5,3.5
		c0.7,1.5,1.1,3.2,1.2,4.8l0,0c0.2,1.9,0,3.7-0.7,5.5l-0.3,0.8c-1,2.9-1.5,6-1.5,9.1l0.1,6.3c0,1.8,0.3,3.5,0.7,5.2l2.4,10.1
		c0.5,1.9,1.1,3.8,1.8,5.6l3.3,7.9c0.8,1.8,1.4,3.6,1.8,5.5l2.1,9c0.3,1.3,0.5,2.5,0.7,3.8l1,7.5c0.3,2,0.3,4.1,0.3,6.1l-0.4,11.9
		c-0.1,1.9-0.3,3.7-0.7,5.5l-1.6,6.9l-1.7,5.8c-0.2,0.7-0.5,1.4-0.8,2.1l-2.1,4.9c-0.5,1.3-1.2,2.5-2,3.6l-3.5,5.4
		c-0.9,1.3-1.6,2.7-2.3,4.2l-2.6,6c-0.4,0.9-0.7,1.7-0.9,2.6l-0.9,3.5c-0.2,0.7-0.2,1.5-0.1,2.2l0,0c0.2,1.3,0.8,2.5,1.8,3.4
		l0.5,0.4c0.9,0.8,1.9,1.2,3.1,1.4l4.8,0.6c0.6,0.1,1.2,0.2,1.9,0.3l5.3,1c1.4,0.3,2.8,0.4,4.2,0.5l5.2,0.1c1.5,0,2.9,0,4.4-0.2
		l9.2-1.3l12.5-1.2c2.9-0.3,5.7-0.9,8.5-1.9l3.5-1.2l4-1.3c0.9-0.3,1.8-0.8,2.5-1.4l2-1.6c0.7-0.5,1.2-1.1,1.7-1.8l0.1-0.1
		c1.1-1.5,1.7-3.3,1.8-5.2l0,0c0-0.3,0-0.5,0-0.8l-0.5-7.4l-1.1-8.5l-0.5-5.6c0-0.4-0.1-0.7-0.2-1.1l-0.3-0.8
		c-0.4-1.1-1.3-1.9-2.3-2.3l0,0c-1-0.4-2.1-0.3-3,0.1l-0.4,0.2c-0.8,0.4-1.5,0.8-2.1,1.4l-2.9,2.7c-0.7,0.6-1.5,1.2-2.3,1.7
		l-2.7,1.6c-0.3,0.2-0.7,0.4-1,0.7l-4.7,3.4c-1.2,0.9-2.5,1.5-3.8,2.1l-3.7,1.4c-0.6,0.2-1.1,0.4-1.7,0.6l-4.4,1.2
		c-0.8,0.2-1.6,0.2-2.4-0.1l0,0c-1.3-0.5-2.2-1.7-2.4-3.1l0,0c-0.2-2.1-0.1-4.2,0.5-6.3l1.5-5.8l2-9.1l1.6-9.6l0.7-3.7
		c0.3-1.7,0.5-3.4,0.6-5.1l0.3-5.9l0.2-4.2c0.1-1.5,0-3-0.1-4.5l-0.2-1.9c-0.1-0.7-0.1-1.4-0.1-2.1l-0.1-4c0-1.2,0.3-2.4,1.1-3.4
		l0,0c0.3-0.4,0.6-0.7,0.9-0.9l2.3-1.8c0.3-0.3,0.7-0.6,1-0.9l2.1-2c0.5-0.5,1-1.1,1.4-1.7l0.3-0.4c1.1-1.5,1.7-3.3,1.8-5.1l0,0
		c0-0.9,0-1.7-0.2-2.5l-0.2-1.2c-0.2-0.8-0.4-1.5-0.7-2.2l0,0c-0.7-1.4-2-2.4-3.5-2.7l-1.3-0.2l-4.4-0.4l-1.6-0.2
		c-1.2-0.2-2.3-1-2.8-2.1l-1-2.3c-0.3-0.7-0.6-1.3-0.8-2l-1.7-5.4l-1.9-6c-0.3-1-0.6-2.1-0.7-3.2l-0.8-5.5c-0.2-1-0.2-2.1-0.3-3.1
		l-0.4-7.6V360l0.1-2.7c0.1-2,0.3-4.1,0.7-6.1l0,0c0.2-1.2,0.9-2.3,1.9-3.1l0.9-0.7c0.9-0.7,2-1.1,3.2-1.2l4-0.1l8.5,0.4l7.6,0.5
		l3.5,0.2c0.9,0,2,0.1,3.2,0.5l0,0c0.6,0.3,1.1,0.4,1.6,0.5l0,0C683.4,347.9,684.2,347.8,684.8,347.3L684.8,347.3z"/>
</g>
<g id="l">
	<path class="st0" d="M665,474.5l0.7-2.6c0.3-1.4,0.5-2.8,0.6-4.3l0.1-4.5l0.2-8.7c0-1.5,0.2-3.1,0.4-4.6l0.7-4.5
		c0.3-2.2,0.9-4.5,1.6-6.6l2.8-7.9l3.6-9.7l3.3-9.3c0.6-1.6,1-3.2,1.2-4.9l1.2-9c0.1-0.8,0.2-1.6,0.2-2.3l0.2-8.5
		c0-0.9,0.1-1.7,0.2-2.5l1-9.4c0.2-1.4,0.4-2.7,0.7-4l1.6-6.8c0.1-0.6,0.3-1.1,0.5-1.7l1.4-4.4c0.4-1.3,0.9-2.5,1.5-3.7l1.3-2.5
		l2.2-5.7c0.3-0.9,0.6-1.8,0.8-2.8l1.3-8.5l0.1-4.8c0-1.4,0.5-2.7,1.4-3.7l0,0c0.9-1,2-1.8,3.3-2.1l8-1.9l6.5-1.2c2-0.4,4-0.5,6-0.5
		h1.4c1.3,0,2.6,0.4,3.8,1l0,0c1.6,0.8,3,2.1,3.8,3.6l0,0c1.2,2.1,1.8,4.4,1.7,6.8l-0.2,6.8l-0.3,12l-0.5,18.3
		c0,1.9-0.2,3.9-0.6,5.8l-2.1,11.6c-0.2,1.4-0.4,2.8-0.5,4.2l-1.6,31.5l-1,11.6c-0.1,1.1-0.1,2.3,0.1,3.4l0.2,1.8
		c0.1,0.9,0.5,1.6,1.2,2.2l0,0c1.3,1,3.1,1,4.3,0l0,0c1.8-1.5,3-3.7,3.3-6l0.4-2.7c0.2-1.7,0.4-3.4,0.4-5.1l0.2-9.3
		c0-0.9,0-1.8,0-2.7l-0.5-15.7l-1-17.4c0-0.9-0.1-1.9-0.1-2.8l0.1-9.1c0-1.5,0.1-3.1,0.3-4.6l1.3-12c0.1-0.8,0.2-1.7,0.4-2.5
		l2.6-13.7c0.3-1.5,0.7-3.1,1.2-4.6l1.5-4.3c0.8-2.5,2.7-4.4,5-5.5l1.4-0.6c1.6-0.7,3.3-1.2,5.1-1.4l5.9-0.7c1.1-0.1,2.2,0,3.2,0.4
		l0,0c1.7,0.6,3.2,1.9,4,3.6l0,0c0.9,1.9,1.4,4,1.3,6.1l-0.1,3c-0.1,2.2-0.4,4.3-1.1,6.4l-2.2,6.7c-0.4,1.2-0.7,2.5-1,3.8l-4.2,21.5
		c-0.1,0.6-0.2,1.2-0.3,1.9l-3,22.8c-0.1,0.8-0.2,1.6-0.2,2.4l-1.5,30.8c0,0.8,0,1.5,0,2.3l0.3,11.8c0.1,4,0.4,7.9,1,11.8l1.5,10.8
		l1.3,9c0.7,4.6,1.1,9.2,1.1,13.9l0.1,5.3l-0.2,5.8c0,1.9-0.4,3.8-0.9,5.7l0,0c-0.7,2.5-2.2,4.7-4.3,6.2l-0.7,0.5
		c-1.1,0.8-2.3,1.5-3.6,2l-8,3.2c-0.6,0.2-1.3,0.5-1.9,0.6l-9.5,2.5c-1.1,0.3-2.2,0.4-3.3,0.4l-7.8-0.2l-4.9-0.1
		c-2.5-0.1-4.8-0.9-6.8-2.4l-0.5-0.3c-1.3-1-2.3-2.4-2.9-3.9l-1.2-3.2c-0.7-1.8-1.1-3.7-1.2-5.6l-0.5-8c-0.1-2-0.2-4-0.1-6l0.3-9.8
		l0.3-10.8c0-1.8,0-3.6-0.1-5.4l-0.6-10.5c-0.1-1.4-0.1-2.9-0.1-4.3l0.2-14.7l0.2-16.6c0-1.9,0.1-3.8,0.3-5.7l1.1-10.4l1.8-12.2
		c0.1-0.7,0.2-1.4,0.4-2l1.5-6.8c0.3-1.2,0.4-2.4,0.5-3.7l0.5-5.8c0-0.5,0-1.1-0.1-1.6l-0.4-1.7c-0.2-0.9-1.3-1.3-2.1-0.7l0,0
		c-0.7,0.5-1.1,1.2-1.3,2l-0.8,2.7c-0.4,1.5-0.7,2.9-0.8,4.4l-1.9,18.4c-0.1,0.7-0.2,1.3-0.3,2l-4.2,23.9c-0.2,1.2-0.4,2.5-0.5,3.7
		l-1.1,12.4c-0.1,1.2-0.2,2.4-0.2,3.6l-0.1,11.5l0.4,7.5c0.1,1.1,0.3,2.3,0.8,3.4l0.2,0.5c0.5,1.1,0.5,2.4,0,3.5l0,0
		c-0.4,0.8-1,1.5-1.8,2l-3.2,1.8c-0.5,0.3-1,0.5-1.6,0.8l-6.3,2.7c-0.8,0.3-1.6,0.6-2.5,0.8l-4.4,0.9c-0.5,0.1-1.1,0.2-1.6,0.2
		l-3.2,0.2c-0.7,0-1.4-0.1-2-0.5l0,0C665.2,477.1,664.7,475.8,665,474.5L665,474.5z"/>
</g>
</svg>
